<svg version="1.0" xmlns="http://www.w3.org/2000/svg"
 width="2100.000000pt" height="2100.000000pt" viewBox="0 0 2100.000000 2100.000000"
 preserveAspectRatio="xMidYMid meet">

<g transform="translate(0.000000,2100.000000) scale(0.100000,-0.100000)" stroke="none">
<path d="M10149 20890 c-866 -37 -1710 -174 -2507 -405 -160 -46 -583 -186
-734 -242 l-48 -18 -1 -120 c0 -66 -2 -169 -4 -230 -2 -60 -6 -195 -9 -300 -9
-328 -26 -3057 -26 -4315 l0 -1205 -2707 3 c-1909 3 -2773 1 -2928 -7 -215
-11 -457 -30 -463 -35 -8 -9 -131 -375 -182 -545 -238 -792 -369 -1527 -432
-2426 -16 -229 -16 -973 0 -1205 79 -1134 295 -2147 660 -3097 101 -262 83
-237 172 -234 97 2 331 20 349 27 15 5 5522 6 5527 1 2 -2 5 -1243 7 -2758 4
-2253 7 -2787 19 -2936 7 -100 16 -184 18 -186 3 -2 19 -9 35 -15 17 -5 107
-38 200 -72 652 -234 1420 -414 2165 -504 495 -61 498 -61 1290 -61 631 0 760
3 910 18 723 73 1338 185 1929 353 204 57 635 198 780 254 l83 33 -7 311 c-4
171 -11 329 -16 351 -5 23 -9 1151 -9 2628 l0 2587 2643 2 c1453 1 2669 0
2702 -2 33 -2 92 -4 130 -4 91 0 557 23 562 27 10 11 155 404 218 592 270 806
432 1630 507 2575 18 223 18 1199 0 1405 -74 876 -181 1488 -383 2195 -50 174
-212 668 -230 702 -9 16 -25 18 -147 19 -75 0 -218 4 -317 8 -99 5 -182 5
-185 2 -3 -3 -1243 -4 -2756 -3 l-2751 4 -7 571 c-11 909 -9 3725 2 4501 6
390 8 798 5 906 l-6 198 -156 55 c-842 297 -1670 478 -2571 561 -395 37 -961
52 -1331 36z"/>
</g>
</svg>
