<svg version="1.0" xmlns="http://www.w3.org/2000/svg"
 width="2100.000000pt" height="2100.000000pt" viewBox="0 0 2100.000000 2100.000000"
 preserveAspectRatio="xMidYMid meet">

<g transform="translate(0.000000,2100.000000) scale(0.100000,-0.100000)" stroke="none">
<path d="M5475 18370 c-408 -7 -852 -29 -1050 -50 -315 -35 -833 -116 -1345
-210 -648 -119 -1130 -228 -1610 -364 -107 -30 -265 -73 -350 -95 -439 -112
-628 -187 -718 -286 -34 -37 -53 -68 -58 -93 -4 -20 -13 -49 -20 -63 -14 -28
-13 220 -33 -8634 l-6 -2840 41 -55 c71 -93 72 -94 151 -80 37 6 86 18 108 26
22 8 81 21 130 28 113 19 399 77 760 154 498 108 871 172 1575 272 535 76
1018 128 1320 141 362 17 1833 23 2100 10 393 -20 440 -27 1472 -205 629 -109
1095 -210 1468 -317 167 -48 822 -254 968 -304 415 -142 902 -354 1642 -715
212 -103 455 -219 540 -258 368 -166 643 -298 1065 -509 684 -343 894 -439
1220 -558 531 -194 1268 -360 2090 -469 729 -98 990 -109 1615 -70 650 40 841
79 1190 244 328 155 366 172 460 207 150 56 426 199 526 272 l91 66 6 135 c23
467 27 1023 32 4745 3 2250 8 4756 11 5570 l6 1480 -26 27 c-17 17 -44 30 -81
38 -49 10 -58 9 -82 -8 -16 -10 -91 -54 -168 -97 -77 -43 -181 -102 -232 -132
-51 -30 -159 -85 -240 -122 -81 -38 -179 -84 -218 -103 -208 -105 -382 -139
-885 -173 -530 -35 -794 -31 -1280 21 -916 97 -1848 302 -2455 539 -220 86
-452 194 -920 431 -380 192 -764 377 -1085 521 -80 36 -356 168 -615 293 -633
307 -960 453 -1390 623 -270 106 -404 152 -800 276 -891 278 -1109 326 -2620
581 -306 51 -535 82 -750 100 -167 15 -997 20 -1550 10z m-3186 -1161 c298
-53 587 -270 764 -574 52 -89 126 -268 153 -370 77 -292 78 -609 3 -907 -61
-242 -204 -495 -375 -664 -270 -265 -637 -367 -984 -273 -96 26 -258 105 -335
163 -216 164 -387 413 -479 696 -132 409 -98 898 91 1274 181 360 488 607 815
655 40 6 84 13 98 15 34 6 181 -3 249 -15z m8366 -1169 c410 -37 756 -137
1115 -321 648 -332 1239 -957 1621 -1714 338 -670 520 -1391 560 -2219 24
-495 -34 -1083 -156 -1581 -248 -1013 -773 -1891 -1465 -2446 -276 -222 -507
-360 -806 -485 -371 -154 -749 -223 -1154 -211 -440 13 -818 111 -1234 319
-286 144 -639 407 -881 659 -770 802 -1222 1900 -1305 3174 -44 689 56 1466
272 2109 291 867 776 1581 1407 2074 331 258 737 463 1109 558 310 79 638 109
917 84z m8390 -1759 c169 -45 390 -180 510 -312 259 -287 395 -658 395 -1079
0 -544 -233 -1014 -630 -1269 -93 -59 -254 -119 -371 -137 -268 -41 -529 26
-754 193 -236 176 -421 465 -500 782 -29 119 -55 316 -55 424 0 115 27 332 54
440 131 514 490 889 929 973 104 20 319 12 422 -15z m-16793 -4816 c338 -51
653 -301 826 -657 68 -138 118 -287 144 -427 32 -166 32 -464 1 -636 -84 -465
-364 -858 -723 -1017 -155 -68 -223 -82 -405 -82 -182 1 -252 15 -405 82 -360
159 -635 547 -722 1018 -31 170 -31 459 0 625 72 386 256 700 527 902 225 168
483 234 757 192z m16538 -3125 c259 -63 500 -247 677 -515 164 -248 253 -596
240 -940 -7 -186 -27 -305 -78 -460 -125 -379 -350 -655 -655 -801 -118 -57
-223 -84 -356 -91 -391 -22 -737 169 -973 536 -274 425 -322 1028 -121 1524
167 411 492 695 871 762 106 19 284 12 395 -15z"/>
</g>
</svg>
