<svg xmlns="http://www.w3.org/2000/svg" viewBox="0 0 30 26"><path d="M2 14h2v2H2zM2 18v-2H0v6h2v-2zM2 22h2v2H2zM6 24H4v2h6v-2H8zM10 22h2v2h-2zM12 20v2h2v-6h-2v2zM10 14h2v2h-2zM8 14h2v-2H4v2h2zM22 14h4v-2h-6v2zM18 14h2v2h-2zM18 18v-2h-2v6h2v-2zM18 22h2v2h-2zM22 24h-2v2h6v-2h-2zM26 22h2v2h-2zM28 16v6h2v-6zM26 14h2v2h-2zM10 2h2v2h-2zM10 6V4H8v6h2V8zM10 10h2v2h-2zM16 12h-4v2h6v-2zM18 10h2v2h-2zM20 8v2h2V4h-2v2zM18 2h2v2h-2zM16 2h2V0h-6v2h2zM16 10h2V8h-2V4h-4v2h2v2h-2v2h2zM6 18v2H4v2h6v-2H8v-4H4v2zM22 18v2h-2v2h6v-2h-2v-4h-4v2z"/></svg>
