<svg version="1.0" xmlns="http://www.w3.org/2000/svg"
     width="480.000000pt" height="480.000000pt" viewBox="0 0 480.000000 480.000000"
     preserveAspectRatio="xMidYMid meet">

  <g transform="translate(0.000000,480.000000) scale(0.100000,-0.100000)" stroke="none">
    <path d="M2096 4744 c-519 -69 -973 -293 -1347 -664 -210 -208 -350 -403 -467
-650 -155 -326 -219 -591 -229 -955 -10 -355 48 -663 184 -985 82 -192 157
-320 296 -504 609 -800 1668 -1124 2620 -800 336 115 657 314 907 564 358 358
589 817 666 1325 23 149 26 503 5 640 -83 556 -313 1015 -697 1385 -349 336
-768 548 -1249 632 -159 27 -528 34 -689 12z m474 -474 c307 -28 598 -132 875
-314 164 -108 388 -331 494 -491 141 -213 238 -443 292 -695 21 -93 23 -133
24 -355 0 -226 -2 -261 -24 -360 -88 -414 -297 -777 -597 -1039 -112 -98 -183
-149 -324 -229 -143 -82 -285 -139 -454 -182 -165 -42 -273 -55 -456 -55 -183
0 -291 13 -458 56 -172 44 -311 99 -449 177 -173 99 -267 171 -414 317 -156
156 -262 304 -359 504 -176 362 -230 788 -149 1178 135 657 617 1199 1244
1401 262 84 489 110 755 87z"/>
    <path d="M1685 3664 c-48 -26 -96 -76 -116 -120 -18 -39 -19 -100 -25 -1140
-8 -1252 -14 -1164 75 -1247 60 -56 132 -77 206 -58 57 14 1904 1069 1953
1114 75 72 94 180 46 275 -14 29 -40 63 -58 76 -17 13 -452 268 -966 567
l-935 544 -75 3 c-55 2 -83 -2 -105 -14z"/>
  </g>
</svg>
