<svg version="1.0" xmlns="http://www.w3.org/2000/svg"
 width="480.000000pt" height="480.000000pt" viewBox="0 0 480.000000 480.000000"
 preserveAspectRatio="xMidYMid meet">

<g transform="translate(0.000000,480.000000) scale(0.100000,-0.100000)"
stroke="none">
<path d="M2096 4744 c-519 -69 -973 -293 -1347 -664 -210 -208 -350 -403 -467
-650 -108 -226 -162 -397 -204 -640 -30 -171 -32 -556 -5 -730 81 -507 304
-947 667 -1311 588 -589 1433 -820 2248 -613 395 100 777 319 1072 614 358
358 589 817 666 1325 23 149 26 503 5 640 -83 556 -313 1015 -697 1385 -349
336 -768 548 -1249 632 -159 27 -528 34 -689 12z m474 -474 c307 -28 598 -132
875 -314 164 -108 388 -331 494 -491 141 -213 238 -443 292 -695 21 -93 23
-133 24 -355 0 -226 -2 -261 -24 -360 -88 -414 -297 -777 -597 -1039 -112 -98
-183 -149 -324 -229 -143 -82 -285 -139 -454 -182 -165 -42 -273 -55 -456 -55
-183 0 -291 13 -458 56 -172 44 -311 99 -449 177 -173 99 -267 171 -414 317
-156 156 -262 304 -359 504 -176 362 -230 788 -149 1178 135 657 617 1199
1244 1401 262 84 489 110 755 87z"/>
<path d="M1845 3541 c-77 -19 -152 -88 -173 -160 -17 -55 -17 -1857 0 -1912
15 -51 70 -114 121 -140 49 -25 136 -28 187 -7 50 22 98 64 123 112 l22 41 0
950 0 950 -22 41 c-30 57 -83 100 -145 119 -56 16 -67 17 -113 6z"/>
<path d="M2841 3528 c-69 -19 -127 -73 -156 -142 -23 -55 -22 -1889 1 -1944
66 -159 286 -195 394 -64 62 75 61 47 58 1063 l-3 924 -28 47 c-34 58 -81 95
-143 114 -53 16 -75 16 -123 2z"/>
</g>
</svg>
