<svg xmlns="http://www.w3.org/2000/svg" version="1.1" x="0px" y="0px" viewBox="0 0 100 125">
  <g transform="translate(0,-952.36218)">
    <path
      style="text-indent:0;text-transform:none;direction:ltr;block-progression:tb;baseline-shift:baseline;enable-background:accumulate;"
      d="m 50,959.36219 c -23.70078,0 -43,19.2993 -43,43.00001 0,23.7008 19.29922,43 43,43 23.70078,0 43,-19.2992 43,-43 0,-23.70071 -19.29922,-43.00001 -43,-43.00001 z m 0,8 c 19.3772,0 35,15.6229 35,35.00001 0,19.3772 -15.6228,35 -35,35 -19.3772,0 -35,-15.6228 -35,-35 0,-19.37711 15.6228,-35.00001 35,-35.00001 z m -7.875,16 c -2.1758,0.052 -4.06937,1.9088 -4.125,4.5625 l 0,28.84381 c 0.0743,3.5382 3.41961,5.6844 6.34375,4 l 23.5,-14.4688 C 69.12441,1005.5094 70,1004.0589 70,1002.3622 c 0,-1.6967 -0.87559,-3.14727 -2.15625,-3.93747 l -23.5,-14.46874 c -0.73104,-0.4211 -1.49348,-0.6111 -2.21875,-0.5938 z"
      fill-opacity="1" stroke="none" visibility="visible" display="inline"
      />
  </g>
</svg>
