<svg version="1.0" xmlns="http://www.w3.org/2000/svg"
 width="2100.000000pt" height="2100.000000pt" viewBox="0 0 2100.000000 2100.000000"
 preserveAspectRatio="xMidYMid meet">

<g transform="translate(0.000000,2100.000000) scale(0.100000,-0.100000)" stroke="none">
<path d="M10190 20954 c-1448 -58 -2687 -365 -3915 -969 -1541 -759 -2834
-1913 -3781 -3375 -655 -1012 -1123 -2188 -1338 -3365 -197 -1081 -213 -2097
-50 -3175 251 -1663 949 -3227 2028 -4545 429 -524 1038 -1119 1502 -1468 46
-34 83 -68 84 -75 0 -7 -15 -65 -34 -130 -19 -64 -53 -184 -76 -267 -23 -82
-72 -244 -110 -360 -151 -459 -400 -1268 -400 -1297 0 -7 212 -194 280 -248
30 -23 127 -78 215 -121 88 -43 240 -123 338 -178 98 -56 247 -136 330 -179
84 -43 213 -117 287 -164 221 -139 326 -198 490 -274 85 -40 223 -104 305
-143 83 -39 161 -71 175 -71 55 0 99 20 127 59 16 22 51 57 78 78 33 26 67 69
100 124 27 46 77 118 111 159 92 113 186 246 256 364 l63 105 6 -302 c5 -276
19 -431 41 -452 3 -3 41 -14 84 -25 44 -10 170 -48 281 -84 284 -92 610 -178
878 -231 127 -25 381 -79 565 -120 184 -41 378 -81 430 -89 99 -16 344 -36
441 -36 l55 0 17 48 c9 26 41 144 71 262 30 118 82 290 115 383 59 162 105
314 172 560 17 65 33 116 36 114 2 -3 33 -146 68 -318 62 -305 98 -468 171
-769 19 -80 39 -165 44 -189 6 -24 20 -57 31 -72 l20 -29 185 0 c289 0 1167
19 1394 30 113 6 302 15 420 20 265 12 800 65 858 85 17 6 15 71 -3 142 -31
119 -66 397 -70 563 -10 372 -12 750 -5 745 5 -3 46 -69 91 -148 45 -78 101
-173 125 -212 23 -38 97 -180 163 -315 126 -258 284 -534 351 -611 68 -81 182
-129 304 -129 57 0 68 5 232 95 95 52 251 146 346 209 95 63 320 201 499 309
179 107 424 257 545 334 267 170 381 239 420 253 45 18 366 226 428 278 30 26
66 55 80 65 31 21 48 76 36 118 -11 36 -89 175 -135 239 -18 25 -47 79 -64
120 -17 41 -60 128 -96 194 -142 258 -318 612 -410 826 -53 124 -139 313 -190
420 -101 211 -135 288 -135 301 0 15 342 265 372 272 82 21 649 563 985 942
607 684 1129 1477 1498 2275 488 1054 759 2079 861 3260 21 248 30 951 15
1220 -67 1195 -327 2280 -806 3360 -433 977 -1036 1874 -1802 2684 -766 808
-1766 1531 -2774 2007 -1124 530 -2249 819 -3490 899 -170 10 -683 19 -819 14z
m-2692 -6953 c480 -74 897 -255 1275 -553 219 -173 480 -469 626 -711 66 -110
168 -323 215 -448 208 -562 221 -1214 35 -1772 -138 -413 -360 -768 -670
-1074 -781 -769 -1949 -981 -2961 -538 -561 246 -1042 707 -1313 1260 -191
391 -275 752 -275 1190 0 395 68 719 227 1084 205 473 592 916 1039 1193 320
198 713 336 1074 377 52 6 109 13 125 15 84 12 477 -3 603 -23z m6947 -1268
c590 -82 1102 -455 1370 -998 81 -165 116 -260 146 -399 94 -429 50 -823 -135
-1211 -263 -551 -772 -926 -1382 -1021 -144 -22 -393 -22 -539 0 -777 118
-1391 710 -1537 1481 -32 172 -33 484 0 664 71 394 290 783 586 1042 233 204
520 353 796 414 248 55 447 63 695 28z m-4620 -6292 c384 -94 672 -401 740
-790 88 -501 -224 -986 -721 -1123 -115 -31 -383 -31 -498 0 -263 73 -490 251
-615 484 -277 514 -53 1155 482 1378 79 33 129 46 277 74 53 10 258 -4 335
-23z m2340 -76 c387 -80 697 -403 761 -795 87 -533 -248 -1023 -775 -1132
-123 -26 -324 -21 -445 11 -278 73 -524 280 -641 536 -234 513 -3 1111 511
1325 187 78 386 96 589 55z"/>
</g>
</svg>
