<svg version="1.0" xmlns="http://www.w3.org/2000/svg"
     width="480.000000pt" height="480.000000pt" viewBox="0 0 480.000000 480.000000"
     preserveAspectRatio="xMidYMid meet">

  <g transform="translate(0.000000,480.000000) scale(0.100000,-0.100000)"
     stroke="none">
    <path d="M2096 4744 c-519 -69 -973 -293 -1347 -664 -210 -208 -350 -403 -467
-650 -155 -326 -219 -591 -229 -955 -10 -355 48 -663 184 -985 82 -192 157
-320 296 -504 609 -800 1668 -1124 2620 -800 336 115 657 314 907 564 358 358
589 817 666 1325 23 149 26 503 5 640 -83 556 -313 1015 -697 1385 -349 336
-768 548 -1249 632 -159 27 -528 34 -689 12z m474 -474 c307 -28 598 -132 875
-314 164 -108 388 -331 494 -491 141 -213 238 -443 292 -695 21 -93 23 -133
24 -355 0 -226 -2 -261 -24 -360 -88 -414 -297 -777 -597 -1039 -112 -98 -183
-149 -324 -229 -143 -82 -285 -139 -454 -182 -165 -42 -273 -55 -456 -55 -183
0 -291 13 -458 56 -172 44 -311 99 -449 177 -173 99 -267 171 -414 317 -156
156 -262 304 -359 504 -176 362 -230 788 -149 1178 135 657 617 1199 1244
1401 262 84 489 110 755 87z"/>
    <path d="M955 3186 c-41 -19 -83 -66 -95 -107 -6 -20 -10 -295 -10 -699 l0
-666 23 -44 c46 -93 137 -116 245 -61 31 16 191 106 356 200 164 94 300 171
302 171 2 0 4 -61 4 -136 0 -105 4 -144 16 -170 34 -72 119 -114 192 -95 20 6
186 96 367 200 l330 189 5 -141 c3 -85 10 -151 17 -163 20 -35 71 -73 113 -84
57 -15 94 -2 240 85 69 41 331 192 582 335 508 290 502 286 502 385 0 36 -7
62 -23 88 -26 42 -36 48 -781 481 l-425 247 -60 -3 c-74 -4 -119 -33 -146 -92
-15 -33 -19 -66 -19 -168 0 -71 -3 -128 -6 -128 -3 0 -143 80 -312 179 -377
219 -361 211 -416 211 -58 0 -85 -11 -123 -50 -41 -42 -53 -95 -53 -239 0 -67
-2 -121 -3 -121 -2 0 -147 84 -323 186 -175 102 -336 195 -356 205 -43 22
-100 24 -143 5z"/>
  </g>
</svg>
