<svg version="1.0" xmlns="http://www.w3.org/2000/svg"
 width="2100.000000pt" height="2100.000000pt" viewBox="0 0 2100.000000 2100.000000"
 preserveAspectRatio="xMidYMid meet">

<g transform="translate(0.000000,2100.000000) scale(0.100000,-0.100000)" stroke="none">
<path d="M16345 20810 c-217 -22 -381 -107 -494 -255 -193 -255 -189 -663 9
-1169 134 -340 334 -699 587 -1055 l96 -134 -577 -575 -577 -576 -1432 1430
c-1724 1722 -1794 1792 -1869 1828 -69 34 -144 45 -235 35 -86 -9 -147 -37
-202 -92 -57 -55 -78 -100 -92 -188 -15 -96 -5 -170 31 -245 34 -69 143 -186
797 -851 l382 -389 -4947 -4947 c-2721 -2721 -4952 -4947 -4958 -4947 -11 0
-151 -162 -161 -186 -4 -10 280 -300 890 -912 l895 -897 -1064 -1072 -1065
-1072 504 -501 505 -500 -1032 -1033 c-1246 -1245 -1502 -1510 -1511 -1560
-19 -98 70 -183 167 -162 24 5 68 41 153 124 66 64 169 162 230 216 131 120
266 250 1100 1064 352 343 749 734 882 869 l242 245 563 -558 563 -558 1045
1049 c575 578 1053 1056 1063 1064 17 12 73 -41 635 -601 339 -338 781 -777
982 -976 l366 -363 5034 5035 5035 5035 470 -468 c258 -258 486 -478 505 -490
194 -113 451 -31 549 177 23 49 26 68 26 161 0 178 33 136 -618 790 -309 311
-1048 1052 -1642 1648 l-1080 1082 575 574 575 575 95 -70 c526 -389 1059
-657 1480 -746 108 -23 149 -27 305 -27 192 -1 246 8 360 59 221 97 342 269
381 540 15 104 16 136 6 238 -16 161 -45 297 -97 452 -322 968 -1322 2205
-2475 3062 -760 565 -1485 869 -1955 823z m-482 -5252 c1466 -1470 2668 -2676
2672 -2680 5 -4 -4 -25 -18 -45 -15 -21 -284 -296 -599 -610 l-573 -573 -4280
0 -4279 0 31 32 c63 65 81 167 44 238 -11 19 -239 254 -508 522 l-488 488 492
492 492 492 224 -230 c123 -126 247 -256 274 -289 70 -83 263 -269 298 -287
134 -68 295 30 295 179 0 95 -10 107 -477 581 -178 180 -323 332 -323 337 0 6
233 243 517 527 l517 517 549 -555 c332 -335 568 -565 596 -582 54 -31 136
-36 187 -9 100 52 139 178 87 281 -8 17 -268 282 -576 590 l-560 558 606 607
606 606 439 -436 c478 -474 482 -477 577 -467 125 15 200 147 147 260 -20 42
-397 442 -687 727 l-197 194 603 603 c420 420 610 604 625 604 15 0 807 -788
2687 -2672z m-8105 -3906 l-810 -2 -93 87 -94 88 410 411 410 411 494 -496
494 -496 -811 -3z"/>
</g>
</svg>
