<svg version="1.0" xmlns="http://www.w3.org/2000/svg"
 width="2100.000000pt" height="2100.000000pt" viewBox="0 0 2100.000000 2100.000000"
 preserveAspectRatio="xMidYMid meet">

<g transform="translate(0.000000,2100.000000) scale(0.100000,-0.100000)" stroke="none">
<path d="M10240 20785 c-369 -59 -711 -264 -931 -558 -68 -91 -151 -240 -163
-292 -4 -16 -23 -72 -42 -123 -19 -51 -47 -141 -61 -200 -25 -99 -28 -123 -28
-312 0 -227 12 -309 66 -473 75 -221 178 -388 348 -558 129 -128 260 -222 406
-290 106 -48 240 -94 327 -112 l63 -13 3 -260 2 -261 -172 -6 c-499 -18 -1075
-112 -1582 -258 -305 -88 -696 -234 -972 -363 -66 -31 -125 -56 -130 -55 -5 0
-127 156 -272 347 -522 691 -484 646 -561 663 -83 19 -177 -28 -212 -105 -23
-50 -24 -117 -3 -157 15 -29 134 -189 522 -699 95 -124 172 -228 172 -231 0
-4 -62 -44 -137 -89 -578 -346 -1111 -778 -1562 -1265 l-101 -110 -142 143
-142 142 36 67 c85 157 124 338 116 532 -7 150 -35 257 -103 396 -102 208
-252 358 -460 461 -136 66 -238 94 -378 101 -224 12 -416 -38 -631 -165 -61
-36 -187 -160 -235 -230 -172 -254 -214 -379 -214 -632 1 -113 5 -151 27 -235
173 -659 917 -965 1506 -619 l61 36 152 -149 c84 -81 151 -151 150 -155 -2 -4
-51 -72 -110 -150 -212 -285 -441 -650 -609 -973 -130 -251 -305 -659 -378
-882 -11 -32 -23 -53 -32 -53 -8 0 -343 101 -745 225 -482 148 -745 225 -773
224 -146 -2 -235 -136 -177 -264 23 -52 66 -88 133 -113 29 -11 366 -115 748
-232 382 -118 698 -216 702 -219 4 -3 -4 -51 -18 -106 -103 -405 -168 -800
-205 -1255 -13 -151 -15 -763 -4 -862 l7 -58 -216 0 -216 0 0 36 c0 20 -9 80
-20 134 -114 557 -554 1001 -1111 1121 -88 19 -136 23 -309 23 -189 1 -214 -1
-317 -26 -435 -104 -789 -384 -979 -773 -141 -290 -181 -570 -128 -895 84
-513 457 -953 954 -1128 169 -59 276 -76 475 -77 195 0 283 13 420 62 88 32
329 160 412 219 280 200 475 480 563 809 l27 100 239 0 238 0 23 -160 c104
-715 335 -1451 656 -2092 l66 -131 -452 -297 c-638 -419 -611 -399 -639 -463
-53 -119 37 -252 169 -252 70 0 93 14 701 408 222 144 407 262 413 262 5 0 9
-4 9 -8 0 -18 262 -404 377 -558 229 -303 511 -626 737 -840 l108 -104 -32
-37 c-53 -62 -323 -333 -331 -333 -4 0 -23 9 -42 20 -41 24 -181 76 -240 89
-287 64 -591 -1 -824 -178 -217 -164 -361 -420 -393 -701 -7 -57 -10 -137 -6
-179 8 -92 42 -233 67 -281 10 -19 26 -51 35 -70 31 -66 101 -166 172 -246
130 -148 296 -248 492 -297 122 -30 330 -30 454 1 419 104 718 446 767 876 24
218 -35 473 -150 639 -16 24 -31 49 -33 55 -2 6 79 93 180 195 l183 184 122
-97 c564 -446 1197 -805 1857 -1051 63 -23 119 -46 123 -50 5 -4 -71 -233
-168 -510 -127 -359 -178 -517 -178 -550 -1 -57 27 -113 77 -153 34 -28 44
-31 110 -31 61 0 78 4 109 25 20 13 45 41 57 62 11 20 99 260 195 534 96 273
176 498 178 500 2 2 52 -10 113 -26 459 -125 1146 -229 1514 -230 131 0 120
21 120 -221 0 -115 -2 -209 -4 -209 -32 0 -199 -37 -274 -61 -618 -198 -1036
-772 -1036 -1424 0 -235 44 -424 149 -642 209 -437 607 -740 1090 -829 131
-25 381 -25 512 -1 592 109 1069 560 1198 1135 50 218 52 417 10 641 -57 295
-249 626 -478 821 -214 183 -441 290 -754 356 -23 4 -23 5 -23 218 l0 213 149
6 c519 23 1139 133 1672 298 89 27 164 48 166 45 3 -3 96 -294 207 -648 112
-354 210 -657 219 -674 29 -57 105 -104 167 -104 65 0 152 58 176 117 29 68
20 106 -167 702 -100 317 -193 613 -207 659 -15 50 -22 86 -16 91 5 5 77 37
159 72 499 211 1035 529 1517 902 l78 59 77 -70 c43 -39 124 -117 180 -174
l102 -103 -39 -63 c-92 -151 -135 -334 -127 -537 11 -260 102 -479 276 -658
127 -132 293 -231 466 -277 121 -33 321 -38 445 -12 188 39 346 118 492 246
78 68 96 90 160 192 194 307 216 676 60 989 -188 378 -576 598 -979 556 -149
-16 -239 -42 -372 -108 l-113 -56 -164 164 -164 164 157 151 c167 160 360 367
513 549 204 243 501 660 635 893 27 45 52 85 57 88 4 3 237 -111 516 -254 279
-142 524 -265 546 -272 137 -45 276 93 237 236 -22 82 -41 95 -591 374 -283
145 -517 264 -519 266 -2 2 21 57 52 121 300 630 496 1276 596 1958 l28 190
193 0 193 0 19 -94 c85 -420 383 -803 773 -995 222 -109 403 -151 660 -150
247 0 401 34 621 139 420 199 715 574 816 1038 32 148 32 446 0 594 -97 446
-387 826 -777 1018 -187 92 -325 130 -519 143 -380 25 -648 -47 -957 -259
-330 -226 -546 -554 -625 -946 l-18 -93 -174 0 -174 0 8 78 c11 118 8 648 -5
817 -37 483 -110 920 -221 1335 -32 120 -106 362 -126 415 -6 14 100 53 218
79 62 14 421 138 742 255 76 28 151 60 166 71 105 75 95 244 -18 308 -69 39
-108 32 -412 -72 -410 -140 -537 -185 -617 -222 -40 -19 -102 -45 -138 -58
l-66 -24 -10 27 c-78 209 -299 659 -443 906 -187 319 -425 656 -675 955 l-121
145 88 90 c48 49 138 142 201 206 l113 117 62 -39 c174 -109 419 -163 625
-140 412 48 743 319 864 707 118 376 -4 802 -305 1069 -82 73 -270 173 -384
203 -238 64 -490 42 -711 -63 -117 -55 -209 -122 -302 -221 -213 -224 -313
-534 -267 -829 19 -125 44 -204 103 -323 l46 -93 -194 -197 c-107 -108 -196
-198 -199 -200 -3 -1 -66 55 -140 125 -433 408 -853 720 -1362 1011 -95 55
-206 116 -245 136 -40 20 -73 39 -73 42 0 3 67 146 149 317 236 495 321 689
321 732 0 29 -33 111 -54 133 -68 75 -186 66 -262 -20 -36 -40 -157 -278 -354
-693 -79 -165 -144 -302 -146 -304 -1 -1 -87 31 -191 72 -719 289 -1432 447
-2225 493 l-118 7 0 252 0 253 73 12 c252 40 477 133 669 276 325 242 536 603
589 1009 16 124 6 363 -21 490 -128 602 -624 1069 -1232 1160 -119 18 -343 18
-458 0z m1185 -5430 c178 -27 309 -78 445 -173 36 -25 200 -179 365 -341 496
-488 587 -568 830 -727 196 -128 271 -183 440 -324 382 -318 751 -697 950
-975 75 -105 237 -417 288 -555 51 -139 86 -307 99 -485 11 -136 10 -172 -4
-270 -29 -195 -112 -355 -233 -448 -69 -53 -391 -212 -490 -242 -176 -54 -613
-140 -1065 -211 -220 -35 -853 -53 -1250 -35 -151 6 -302 16 -335 21 -33 6
-114 7 -180 4 -205 -10 -434 35 -534 105 -14 10 -44 21 -66 25 -87 15 -222 76
-327 147 -167 113 -247 233 -268 402 -12 96 4 284 29 345 20 48 42 151 106
501 59 324 66 428 75 1131 6 501 12 657 24 740 9 58 30 209 46 335 17 130 42
278 59 340 95 359 283 582 555 661 158 45 281 53 441 29z m-2399 -290 c98 -23
160 -47 215 -86 14 -10 53 -24 86 -32 74 -17 144 -57 177 -100 47 -63 146
-263 146 -296 0 -18 18 -69 39 -114 45 -95 59 -154 67 -281 3 -50 14 -127 24
-171 11 -44 24 -111 30 -150 12 -87 12 -371 -1 -485 -5 -47 -13 -148 -19 -225
-5 -77 -15 -207 -23 -290 -7 -82 -12 -186 -9 -229 2 -44 -1 -120 -8 -170 -22
-167 -88 -450 -138 -591 -6 -16 -18 -68 -26 -115 -9 -47 -36 -136 -61 -198
-25 -61 -65 -169 -89 -240 -78 -226 -93 -254 -264 -474 -95 -122 -152 -177
-278 -267 -93 -66 -186 -113 -294 -149 -78 -26 -268 -62 -330 -62 -24 0 -125
-11 -225 -24 -187 -25 -538 -43 -760 -38 -127 3 -475 36 -560 54 -27 5 -101
25 -164 44 -63 19 -169 46 -237 59 -140 28 -184 44 -234 84 -20 16 -65 43
-100 61 -118 59 -306 219 -399 339 -75 98 -97 142 -122 248 -18 75 -20 108
-16 218 7 160 27 237 106 401 81 167 129 248 206 342 79 96 169 167 323 253
79 44 173 112 315 227 353 285 408 343 599 627 198 293 362 531 431 625 108
145 225 326 272 420 107 212 376 515 578 650 61 41 74 46 397 137 132 37 172
37 346 -2z m-2219 -136 c207 -77 284 -250 238 -534 -33 -204 -111 -350 -341
-640 -57 -71 -118 -147 -136 -167 -63 -69 -286 -265 -356 -312 -98 -65 -254
-137 -401 -187 -116 -38 -131 -41 -210 -37 -103 5 -169 35 -235 109 -56 63
-105 187 -113 288 -13 181 69 443 185 587 26 32 84 90 129 128 45 39 127 121
181 183 178 203 392 364 650 493 100 50 199 94 220 99 64 15 129 12 189 -10z
m6768 -4760 c143 -11 301 -29 350 -39 124 -26 288 -82 425 -144 63 -29 147
-65 185 -80 160 -60 437 -257 524 -372 65 -87 138 -233 151 -303 16 -84 12
-403 -6 -541 -30 -234 -110 -484 -239 -745 -176 -356 -376 -648 -730 -1065
-239 -281 -462 -485 -712 -652 -103 -68 -371 -208 -498 -258 -152 -60 -375
-89 -540 -70 -124 14 -189 32 -279 77 -183 92 -287 198 -371 376 -53 112 -65
173 -65 332 0 161 17 301 55 465 25 107 27 126 21 270 -3 95 -13 190 -25 245
-25 115 -102 353 -153 475 -23 52 -55 138 -73 190 -18 52 -64 177 -104 277
-113 289 -129 379 -96 568 30 171 103 305 245 446 47 47 101 104 118 127 18
22 74 74 125 115 160 130 300 203 421 219 39 5 118 20 176 33 91 21 487 69
635 77 76 4 175 -1 460 -23z m-4650 -164 c66 -9 158 -24 205 -35 47 -10 128
-28 180 -40 133 -29 253 -82 406 -178 199 -124 387 -315 446 -452 79 -181 226
-707 342 -1220 14 -63 46 -203 70 -310 57 -251 76 -387 76 -560 0 -167 -12
-260 -51 -400 -18 -67 -29 -129 -29 -171 0 -183 -30 -359 -92 -539 -56 -164
-98 -246 -185 -361 -262 -348 -725 -472 -1189 -318 -332 110 -542 353 -699
809 -89 258 -229 551 -332 694 -155 217 -339 408 -469 488 -205 126 -351 187
-628 260 -105 28 -247 65 -316 83 -69 19 -197 43 -285 55 -196 26 -265 41
-361 81 -236 98 -354 287 -409 656 -57 383 58 634 338 739 99 36 223 88 342
141 55 25 160 65 234 90 74 24 175 62 225 84 360 158 355 156 801 278 253 70
404 104 526 121 231 31 641 34 854 5z m2667 -4144 c191 -75 276 -148 348 -296
39 -82 60 -173 60 -263 0 -27 7 -79 16 -114 12 -46 15 -92 12 -175 -4 -104 -7
-116 -41 -186 -70 -141 -213 -233 -415 -267 -185 -32 -252 -33 -424 -11 -249
33 -333 79 -426 237 -61 102 -84 174 -90 281 -16 289 81 516 292 687 50 40
101 78 113 84 19 10 143 51 198 66 11 2 72 4 135 2 108 -2 121 -5 222 -45z"/>
</g>
</svg>
