<svg version="1.1" viewBox="0.0 0.0 2257.1102362204724 442.12860892388454" fill="none" stroke="none" stroke-linecap="square" stroke-miterlimit="10"
  xmlns:xlink="http://www.w3.org/1999/xlink"
  xmlns="http://www.w3.org/2000/svg">
  <clipPath id="p.0">
    <path d="m0 0l2257.1104 0l0 442.1286l-2257.1104 0l0 -442.1286z" clip-rule="nonzero"/>
  </clipPath>
  <g clip-path="url(#p.0)">
    <path fill="#000000" fill-opacity="0.0" d="m0 0l2257.1104 0l0 442.1286l-2257.1104 0z" fill-rule="evenodd"/>
    <path fill="#000000" fill-opacity="0.0" d="m0 80.698166l202.70866 0l0 58.173218l-202.70866 0z" fill-rule="evenodd"/>
    <path stroke="#e3dce4" stroke-width="3.0" stroke-linejoin="round" stroke-linecap="butt" d="m0 80.698166l202.70866 0l0 58.173218l-202.70866 0z" fill-rule="evenodd"/>
    <path fill="#e3dce4" d="m10.4375 113.05879l2.859375 -0.25q0.203125 1.71875 0.9375 2.828125q0.75 1.09375 2.3125 1.78125q1.5625 0.671875 3.515625 0.671875q1.734375 0 3.0625 -0.515625q1.328125 -0.515625 1.96875 -1.40625q0.65625 -0.90625 0.65625 -1.96875q0 -1.078125 -0.625 -1.875q-0.625 -0.8125 -2.0625 -1.359375q-0.921875 -0.359375 -4.078125 -1.109375q-3.15625 -0.765625 -4.421875 -1.4375q-1.640625 -0.859375 -2.453125 -2.125q-0.796875 -1.28125 -0.796875 -2.859375q0 -1.734375 0.984375 -3.234375q0.984375 -1.515625 2.875 -2.296875q1.890625 -0.78125 4.203125 -0.78125q2.546875 0 4.484375 0.828125q1.953125 0.8125 3.0 2.40625q1.046875 1.59375 1.125 3.609375l-2.90625 0.21875q-0.234375 -2.171875 -1.59375 -3.28125q-1.34375 -1.109375 -3.984375 -1.109375q-2.75 0 -4.015625 1.015625q-1.25 1.0 -1.25 2.421875q0 1.234375 0.890625 2.03125q0.875 0.796875 4.5625 1.640625q3.703125 0.828125 5.078125 1.453125q2.0 0.921875 2.953125 2.34375q0.953125 1.40625 0.953125 3.25q0 1.828125 -1.046875 3.453125q-1.046875 1.609375 -3.015625 2.515625q-1.953125 0.890625 -4.40625 0.890625q-3.109375 0 -5.21875 -0.90625q-2.09375 -0.90625 -3.296875 -2.71875q-1.1875 -1.828125 -1.25 -4.125zm22.796875 -6.03125l0 -3.203125l3.203125 0l0 3.203125l-3.203125 0zm0 13.390625l0 -3.203125l3.203125 0l0 3.203125l-3.203125 0zm17.0 0l0 -16.59375l2.53125 0l0 2.359375q1.828125 -2.734375 5.28125 -2.734375q1.5 0 2.75 0.546875q1.265625 0.53125 1.890625 1.40625q0.625 0.875 0.875 2.078125q0.15625 0.78125 0.15625 2.734375l0 10.203125l-2.8125 0l0 -10.09375q0 -1.71875 -0.328125 -2.5625q-0.328125 -0.859375 -1.171875 -1.359375q-0.828125 -0.515625 -1.953125 -0.515625q-1.796875 0 -3.109375 1.140625q-1.296875 1.140625 -1.296875 4.328125l0 9.0625l-2.8125 0zm28.625 -2.046875q-1.5625 1.328125 -3.015625 1.875q-1.4375 0.546875 -3.09375 0.546875q-2.734375 0 -4.203125 -1.328125q-1.46875 -1.34375 -1.46875 -3.421875q0 -1.21875 0.546875 -2.21875q0.5625 -1.015625 1.453125 -1.625q0.90625 -0.609375 2.03125 -0.921875q0.828125 -0.21875 2.5 -0.421875q3.40625 -0.40625 5.015625 -0.96875q0.015625 -0.578125 0.015625 -0.734375q0 -1.71875 -0.796875 -2.421875q-1.078125 -0.953125 -3.203125 -0.953125q-1.984375 0 -2.9375 0.703125q-0.9375 0.6875 -1.390625 2.453125l-2.75 -0.375q0.375 -1.765625 1.234375 -2.84375q0.859375 -1.09375 2.484375 -1.671875q1.625 -0.59375 3.765625 -0.59375q2.125 0 3.453125 0.5q1.328125 0.5 1.953125 1.265625q0.625 0.75 0.875 1.90625q0.140625 0.71875 0.140625 2.59375l0 3.75q0 3.921875 0.171875 4.96875q0.1875 1.03125 0.71875 1.984375l-2.9375 0q-0.4375 -0.875 -0.5625 -2.046875zm-0.234375 -6.28125q-1.53125 0.625 -4.59375 1.0625q-1.734375 0.25 -2.453125 0.5625q-0.71875 0.3125 -1.109375 0.921875q-0.390625 0.59375 -0.390625 1.328125q0 1.125 0.84375 1.875q0.859375 0.75 2.5 0.75q1.625 0 2.890625 -0.703125q1.265625 -0.71875 1.859375 -1.953125q0.453125 -0.953125 0.453125 -2.8125l0 -1.03125zm-5.234375 -10.328125l2.078125 -4.375l3.6875 0l-3.4375 4.375l-2.328125 0zm23.265625 12.578125l2.765625 0.359375q-0.453125 2.859375 -2.328125 4.484375q-1.859375 1.609375 -4.578125 1.609375q-3.40625 0 -5.484375 -2.21875q-2.0625 -2.234375 -2.0625 -6.390625q0 -2.6875 0.890625 -4.703125q0.890625 -2.015625 2.703125 -3.015625q1.828125 -1.015625 3.96875 -1.015625q2.703125 0 4.421875 1.375q1.71875 1.359375 2.203125 3.875l-2.734375 0.421875q-0.390625 -1.671875 -1.390625 -2.515625q-0.984375 -0.84375 -2.390625 -0.84375q-2.125 0 -3.453125 1.53125q-1.328125 1.515625 -1.328125 4.8125q0 3.34375 1.28125 4.859375q1.28125 1.515625 3.34375 1.515625q1.65625 0 2.765625 -1.015625q1.109375 -1.015625 1.40625 -3.125zm5.171875 6.078125l0 -22.90625l2.8125 0l0 8.21875q1.96875 -2.28125 4.96875 -2.28125q1.84375 0 3.203125 0.734375q1.359375 0.71875 1.9375 2.0q0.59375 1.28125 0.59375 3.71875l0 10.515625l-2.8125 0l0 -10.515625q0 -2.109375 -0.921875 -3.0625q-0.90625 -0.96875 -2.578125 -0.96875q-1.25 0 -2.359375 0.65625q-1.09375 0.640625 -1.5625 1.75q-0.46875 1.109375 -0.46875 3.0625l0 9.078125l-2.8125 0zm17.671875 6.390625l-0.3125 -2.640625q0.921875 0.25 1.609375 0.25q0.9375 0 1.5 -0.3125q0.5625 -0.3125 0.921875 -0.875q0.265625 -0.421875 0.859375 -2.09375q0.078125 -0.234375 0.25 -0.6875l-6.296875 -16.625l3.03125 0l3.453125 9.609375q0.671875 1.828125 1.203125 3.84375q0.484375 -1.9375 1.15625 -3.78125l3.546875 -9.671875l2.8125 0l-6.3125 16.875q-1.015625 2.734375 -1.578125 3.765625q-0.75 1.390625 -1.71875 2.03125q-0.96875 0.65625 -2.3125 0.65625q-0.8125 0 -1.8125 -0.34375zm16.0625 -6.390625l0 -22.90625l2.8125 0l0 22.90625l-2.8125 0zm7.171875 0l0 -16.59375l2.53125 0l0 2.359375q1.828125 -2.734375 5.28125 -2.734375q1.5 0 2.75 0.546875q1.265625 0.53125 1.890625 1.40625q0.625 0.875 0.875 2.078125q0.15625 0.78125 0.15625 2.734375l0 10.203125l-2.8125 0l0 -10.09375q0 -1.71875 -0.328125 -2.5625q-0.328125 -0.859375 -1.171875 -1.359375q-0.828125 -0.515625 -1.953125 -0.515625q-1.796875 0 -3.109375 1.140625q-1.296875 1.140625 -1.296875 4.328125l0 9.0625l-2.8125 0zm18.78125 0l0 -16.59375l2.8125 0l0 16.59375l-2.8125 0zm-0.625 -18.65625l2.078125 -4.375l3.6875 0l-3.4375 4.375l-2.328125 0z" fill-rule="nonzero"/>
    <path fill="#000000" fill-opacity="0.0" d="m520.5932 80.698166l202.70862 0l0 58.173218l-202.70862 0z" fill-rule="evenodd"/>
    <path stroke="#e3dce4" stroke-width="3.0" stroke-linejoin="round" stroke-linecap="butt" d="m520.5932 80.698166l202.70862 0l0 58.173218l-202.70862 0z" fill-rule="evenodd"/>
    <path fill="#e3dce4" d="m532.5776 120.41817l0 -22.90625l3.03125 0l0 22.90625l-3.03125 0zm8.796875 -13.390625l0 -3.203125l3.203125 0l0 3.203125l-3.203125 0zm0 13.390625l0 -3.203125l3.203125 0l0 3.203125l-3.203125 0zm17.015625 -19.671875l0 -3.234375l2.8125 0l0 3.234375l-2.8125 0zm0 19.671875l0 -16.59375l2.8125 0l0 16.59375l-2.8125 0zm7.09375 0l0 -16.59375l2.53125 0l0 2.359375q1.828125 -2.734375 5.28125 -2.734375q1.5 0 2.75 0.546875q1.265625 0.53125 1.890625 1.40625q0.625 0.875 0.875 2.078125q0.15625 0.78125 0.15625 2.734375l0 10.203125l-2.8125 0l0 -10.09375q0 -1.71875 -0.328125 -2.5625q-0.328125 -0.859375 -1.171875 -1.359375q-0.828125 -0.515625 -1.953125 -0.515625q-1.796875 0 -3.109375 1.140625q-1.296875 1.140625 -1.296875 4.328125l0 9.0625l-2.8125 0zm18.46875 0l0 -14.40625l-2.484375 0l0 -2.1875l2.484375 0l0 -1.765625q0 -1.671875 0.296875 -2.484375q0.40625 -1.09375 1.421875 -1.765625q1.03125 -0.6875 2.875 -0.6875q1.1875 0 2.625 0.28125l-0.421875 2.453125q-0.875 -0.15625 -1.65625 -0.15625q-1.28125 0 -1.8125 0.546875q-0.53125 0.546875 -0.53125 2.046875l0 1.53125l3.234375 0l0 2.1875l-3.234375 0l0 14.40625l-2.796875 0zm19.578125 -5.34375l2.90625 0.359375q-0.6875 2.546875 -2.546875 3.953125q-1.859375 1.40625 -4.75 1.40625q-3.640625 0 -5.78125 -2.234375q-2.125 -2.25 -2.125 -6.296875q0 -4.1875 2.15625 -6.5q2.15625 -2.3125 5.59375 -2.3125q3.328125 0 5.4375 2.265625q2.109375 2.265625 2.109375 6.375q0 0.25 -0.015625 0.75l-12.375 0q0.15625 2.734375 1.546875 4.1875q1.390625 1.453125 3.46875 1.453125q1.546875 0 2.640625 -0.8125q1.09375 -0.8125 1.734375 -2.59375zm-9.234375 -4.546875l9.265625 0q-0.1875 -2.09375 -1.0625 -3.140625q-1.34375 -1.625 -3.484375 -1.625q-1.9375 0 -3.265625 1.296875q-1.3125 1.296875 -1.453125 3.46875zm15.6875 9.890625l0 -22.90625l2.8125 0l0 13.0625l6.65625 -6.75l3.640625 0l-6.34375 6.15625l6.984375 10.4375l-3.46875 0l-5.484375 -8.484375l-1.984375 1.90625l0 6.578125l-2.8125 0zm26.8125 -6.078125l2.765625 0.359375q-0.453125 2.859375 -2.328125 4.484375q-1.859375 1.609375 -4.578125 1.609375q-3.40625 0 -5.484375 -2.21875q-2.0625 -2.234375 -2.0625 -6.390625q0 -2.6875 0.890625 -4.703125q0.890625 -2.015625 2.703125 -3.015625q1.828125 -1.015625 3.96875 -1.015625q2.703125 0 4.421875 1.375q1.71875 1.359375 2.203125 3.875l-2.734375 0.421875q-0.390625 -1.671875 -1.390625 -2.515625q-0.984375 -0.84375 -2.390625 -0.84375q-2.125 0 -3.453125 1.53125q-1.328125 1.515625 -1.328125 4.8125q0 3.34375 1.28125 4.859375q1.28125 1.515625 3.34375 1.515625q1.65625 0 2.765625 -1.015625q1.109375 -1.015625 1.40625 -3.125zm-4.328125 -14.296875l1.71875 -2.65625l3.1875 0l-3.515625 4.375l-3.0 0l-3.375 -4.375l3.21875 0l1.765625 2.65625zm9.5 20.375l0 -16.59375l2.53125 0l0 2.359375q1.828125 -2.734375 5.28125 -2.734375q1.5 0 2.75 0.546875q1.265625 0.53125 1.890625 1.40625q0.625 0.875 0.875 2.078125q0.15625 0.78125 0.15625 2.734375l0 10.203125l-2.8125 0l0 -10.09375q0 -1.71875 -0.328125 -2.5625q-0.328125 -0.859375 -1.171875 -1.359375q-0.828125 -0.515625 -1.953125 -0.515625q-1.796875 0 -3.109375 1.140625q-1.296875 1.140625 -1.296875 4.328125l0 9.0625l-2.8125 0zm18.78125 0l0 -16.59375l2.8125 0l0 16.59375l-2.8125 0zm-0.625 -18.65625l2.078125 -4.375l3.6875 0l-3.4375 4.375l-2.328125 0z" fill-rule="nonzero"/>
    <path fill="#000000" fill-opacity="0.0" d="m1857.7638 80.698166l202.70862 0l0 58.173218l-202.70862 0z" fill-rule="evenodd"/>
    <path stroke="#e3dce4" stroke-width="3.0" stroke-linejoin="round" stroke-linecap="butt" d="m1857.7638 80.698166l202.70862 0l0 58.173218l-202.70862 0z" fill-rule="evenodd"/>
    <path fill="#e3dce4" d="m1869.2794 120.41817l0 -22.90625l10.15625 0q3.0625 0 4.65625 0.625q1.59375 0.609375 2.546875 2.171875q0.953125 1.5625 0.953125 3.453125q0 2.4375 -1.578125 4.109375q-1.578125 1.671875 -4.875 2.125q1.203125 0.578125 1.828125 1.140625q1.328125 1.21875 2.515625 3.046875l3.984375 6.234375l-3.8125 0l-3.03125 -4.765625q-1.328125 -2.0625 -2.1875 -3.15625q-0.859375 -1.09375 -1.546875 -1.53125q-0.671875 -0.4375 -1.375 -0.609375q-0.515625 -0.109375 -1.6875 -0.109375l-3.515625 0l0 10.171875l-3.03125 0zm3.03125 -12.796875l6.515625 0q2.078125 0 3.25 -0.421875q1.171875 -0.4375 1.78125 -1.375q0.609375 -0.953125 0.609375 -2.0625q0 -1.625 -1.1875 -2.671875q-1.171875 -1.046875 -3.71875 -1.046875l-7.25 0l0 7.578125zm20.453125 -0.59375l0 -3.203125l3.203125 0l0 3.203125l-3.203125 0zm0 13.390625l0 -3.203125l3.203125 0l0 3.203125l-3.203125 0zm17.015625 -19.671875l0 -3.234375l2.8125 0l0 3.234375l-2.8125 0zm0 19.671875l0 -16.59375l2.8125 0l0 16.59375l-2.8125 0zm7.09375 0l0 -16.59375l2.515625 0l0 2.328125q0.78125 -1.21875 2.078125 -1.953125q1.296875 -0.75 2.953125 -0.75q1.84375 0 3.015625 0.765625q1.1875 0.765625 1.671875 2.140625q1.96875 -2.90625 5.125 -2.90625q2.46875 0 3.796875 1.375q1.328125 1.359375 1.328125 4.203125l0 11.390625l-2.796875 0l0 -10.453125q0 -1.6875 -0.28125 -2.421875q-0.265625 -0.75 -0.984375 -1.203125q-0.71875 -0.453125 -1.6875 -0.453125q-1.75 0 -2.90625 1.171875q-1.15625 1.15625 -1.15625 3.71875l0 9.640625l-2.8125 0l0 -10.78125q0 -1.875 -0.6875 -2.8125q-0.6875 -0.9375 -2.25 -0.9375q-1.1875 0 -2.203125 0.625q-1.0 0.625 -1.453125 1.828125q-0.453125 1.203125 -0.453125 3.46875l0 8.609375l-2.8125 0zm37.53125 0l0 -2.4375q-1.9375 2.8125 -5.265625 2.8125q-1.46875 0 -2.75 -0.5625q-1.265625 -0.5625 -1.890625 -1.40625q-0.609375 -0.859375 -0.859375 -2.09375q-0.171875 -0.828125 -0.171875 -2.625l0 -10.28125l2.8125 0l0 9.203125q0 2.203125 0.171875 2.96875q0.265625 1.109375 1.125 1.75q0.859375 0.625 2.125 0.625q1.265625 0 2.375 -0.640625q1.109375 -0.65625 1.5625 -1.765625q0.46875 -1.125 0.46875 -3.25l0 -8.890625l2.8125 0l0 16.59375l-2.515625 0zm6.921875 0l0 -16.59375l2.53125 0l0 2.359375q1.828125 -2.734375 5.28125 -2.734375q1.5 0 2.75 0.546875q1.265625 0.53125 1.890625 1.40625q0.625 0.875 0.875 2.078125q0.15625 0.78125 0.15625 2.734375l0 10.203125l-2.8125 0l0 -10.09375q0 -1.71875 -0.328125 -2.5625q-0.328125 -0.859375 -1.171875 -1.359375q-0.828125 -0.515625 -1.953125 -0.515625q-1.796875 0 -3.109375 1.140625q-1.296875 1.140625 -1.296875 4.328125l0 9.0625l-2.8125 0zm17.796875 0l0 -16.59375l2.53125 0l0 2.359375q1.828125 -2.734375 5.28125 -2.734375q1.5 0 2.75 0.546875q1.265625 0.53125 1.890625 1.40625q0.625 0.875 0.875 2.078125q0.15625 0.78125 0.15625 2.734375l0 10.203125l-2.8125 0l0 -10.09375q0 -1.71875 -0.328125 -2.5625q-0.328125 -0.859375 -1.171875 -1.359375q-0.828125 -0.515625 -1.953125 -0.515625q-1.796875 0 -3.109375 1.140625q-1.296875 1.140625 -1.296875 4.328125l0 9.0625l-2.8125 0zm18.78125 0l0 -16.59375l2.8125 0l0 16.59375l-2.8125 0zm-0.625 -18.65625l2.078125 -4.375l3.6875 0l-3.4375 4.375l-2.328125 0z" fill-rule="nonzero"/>
    <path fill="#000000" fill-opacity="0.0" d="m1960.9379 80.69572c-64.53674 -11.439201 -140.38501 -57.90086 -387.22095 -68.63523c-246.83594 -10.734371 -847.21924 -6.5788918 -1093.7946 4.229007c-246.5753 10.807901 -321.38104 50.515324 -385.6573 60.61839" fill-rule="evenodd"/>
    <path stroke="#e3dce4" stroke-width="3.0" stroke-linejoin="round" stroke-linecap="butt" d="m1960.9379 80.69572c-64.53674 -11.439209 -140.38501 -57.90086 -387.22095 -68.63523c-246.83594 -10.734371 -847.21924 -6.578892 -1093.7946 4.229007c-123.28766 5.4039497 -203.6329 18.032784 -261.1908 30.57351c-28.77893 6.270363 -51.861023 12.518703 -71.76564 17.83089c-9.952316 2.6560974 -19.11026 5.078148 -27.788765 7.1519012c-2.1696167 0.51844025 -4.3092804 1.0151062 -6.423889 1.4882278l-0.81108856 0.17971802" fill-rule="evenodd"/>
    <path fill="#e3dce4" stroke="#e3dce4" stroke-width="3.0" stroke-linecap="butt" d="m111.00782 68.64743l-12.435699 7.4334717l14.304436 2.299141z" fill-rule="evenodd"/>
    <path fill="#000000" fill-opacity="0.0" d="m260.6614 80.698166l202.70868 0l0 58.173218l-202.70868 0z" fill-rule="evenodd"/>
    <path stroke="#e3dce4" stroke-width="3.0" stroke-linejoin="round" stroke-linecap="butt" d="m260.6614 80.698166l202.70868 0l0 58.173218l-202.70868 0z" fill-rule="evenodd"/>
    <path fill="#e3dce4" d="m272.19266 120.41817l0 -22.90625l16.5625 0l0 2.703125l-13.53125 0l0 7.015625l12.671875 0l0 2.6875l-12.671875 0l0 7.796875l14.0625 0l0 2.703125l-17.09375 0zm21.703125 -13.390625l0 -3.203125l3.203125 0l0 3.203125l-3.203125 0zm0 13.390625l0 -3.203125l3.203125 0l0 3.203125l-3.203125 0zm17.0 0l0 -16.59375l2.53125 0l0 2.359375q1.828125 -2.734375 5.28125 -2.734375q1.5 0 2.75 0.546875q1.265625 0.53125 1.890625 1.40625q0.625 0.875 0.875 2.078125q0.15625 0.78125 0.15625 2.734375l0 10.203125l-2.8125 0l0 -10.09375q0 -1.71875 -0.328125 -2.5625q-0.328125 -0.859375 -1.171875 -1.359375q-0.828125 -0.515625 -1.953125 -0.515625q-1.796875 0 -3.109375 1.140625q-1.296875 1.140625 -1.296875 4.328125l0 9.0625l-2.8125 0zm28.625 -2.046875q-1.5625 1.328125 -3.015625 1.875q-1.4375 0.546875 -3.09375 0.546875q-2.734375 0 -4.203125 -1.328125q-1.46875 -1.34375 -1.46875 -3.421875q0 -1.21875 0.546875 -2.21875q0.5625 -1.015625 1.453125 -1.625q0.90625 -0.609375 2.03125 -0.921875q0.828125 -0.21875 2.5 -0.421875q3.40625 -0.40625 5.015625 -0.96875q0.015625 -0.578125 0.015625 -0.734375q0 -1.71875 -0.796875 -2.421875q-1.078125 -0.953125 -3.203125 -0.953125q-1.984375 0 -2.9375 0.703125q-0.9375 0.6875 -1.390625 2.453125l-2.75 -0.375q0.375 -1.765625 1.234375 -2.84375q0.859375 -1.09375 2.484375 -1.671875q1.625 -0.59375 3.765625 -0.59375q2.125 0 3.453125 0.5q1.328125 0.5 1.953125 1.265625q0.625 0.75 0.875 1.90625q0.140625 0.71875 0.140625 2.59375l0 3.75q0 3.921875 0.171875 4.96875q0.1875 1.03125 0.71875 1.984375l-2.9375 0q-0.4375 -0.875 -0.5625 -2.046875zm-0.234375 -6.28125q-1.53125 0.625 -4.59375 1.0625q-1.734375 0.25 -2.453125 0.5625q-0.71875 0.3125 -1.109375 0.921875q-0.390625 0.59375 -0.390625 1.328125q0 1.125 0.84375 1.875q0.859375 0.75 2.5 0.75q1.625 0 2.890625 -0.703125q1.265625 -0.71875 1.859375 -1.953125q0.453125 -0.953125 0.453125 -2.8125l0 -1.03125zm7.21875 8.328125l0 -22.90625l2.8125 0l0 13.0625l6.65625 -6.75l3.640625 0l-6.34375 6.15625l6.984375 10.4375l-3.46875 0l-5.484375 -8.484375l-1.984375 1.90625l0 6.578125l-2.8125 0zm26.8125 -2.046875q-1.5625 1.328125 -3.015625 1.875q-1.4375 0.546875 -3.09375 0.546875q-2.734375 0 -4.203125 -1.328125q-1.46875 -1.34375 -1.46875 -3.421875q0 -1.21875 0.546875 -2.21875q0.5625 -1.015625 1.453125 -1.625q0.90625 -0.609375 2.03125 -0.921875q0.828125 -0.21875 2.5 -0.421875q3.40625 -0.40625 5.015625 -0.96875q0.015625 -0.578125 0.015625 -0.734375q0 -1.71875 -0.796875 -2.421875q-1.078125 -0.953125 -3.203125 -0.953125q-1.984375 0 -2.9375 0.703125q-0.9375 0.6875 -1.390625 2.453125l-2.75 -0.375q0.375 -1.765625 1.234375 -2.84375q0.859375 -1.09375 2.484375 -1.671875q1.625 -0.59375 3.765625 -0.59375q2.125 0 3.453125 0.5q1.328125 0.5 1.953125 1.265625q0.625 0.75 0.875 1.90625q0.140625 0.71875 0.140625 2.59375l0 3.75q0 3.921875 0.171875 4.96875q0.1875 1.03125 0.71875 1.984375l-2.9375 0q-0.4375 -0.875 -0.5625 -2.046875zm-0.234375 -6.28125q-1.53125 0.625 -4.59375 1.0625q-1.734375 0.25 -2.453125 0.5625q-0.71875 0.3125 -1.109375 0.921875q-0.390625 0.59375 -0.390625 1.328125q0 1.125 0.84375 1.875q0.859375 0.75 2.5 0.75q1.625 0 2.890625 -0.703125q1.265625 -0.71875 1.859375 -1.953125q0.453125 -0.953125 0.453125 -2.8125l0 -1.03125zm5.71875 8.328125l0 -2.28125l10.5625 -12.125q-1.796875 0.09375 -3.171875 0.09375l-6.765625 0l0 -2.28125l13.5625 0l0 1.859375l-8.984375 10.53125l-1.734375 1.921875q1.890625 -0.140625 3.546875 -0.140625l7.671875 0l0 2.421875l-14.6875 0zm7.984375 -20.375l1.71875 -2.65625l3.1875 0l-3.515625 4.375l-3.0 0l-3.375 -4.375l3.21875 0l1.765625 2.65625zm20.859375 15.03125l2.90625 0.359375q-0.6875 2.546875 -2.546875 3.953125q-1.859375 1.40625 -4.75 1.40625q-3.640625 0 -5.78125 -2.234375q-2.125 -2.25 -2.125 -6.296875q0 -4.1875 2.15625 -6.5q2.15625 -2.3125 5.59375 -2.3125q3.328125 0 5.4375 2.265625q2.109375 2.265625 2.109375 6.375q0 0.25 -0.015625 0.75l-12.375 0q0.15625 2.734375 1.546875 4.1875q1.390625 1.453125 3.46875 1.453125q1.546875 0 2.640625 -0.8125q1.09375 -0.8125 1.734375 -2.59375zm-9.234375 -4.546875l9.265625 0q-0.1875 -2.09375 -1.0625 -3.140625q-1.34375 -1.625 -3.484375 -1.625q-1.9375 0 -3.265625 1.296875q-1.3125 1.296875 -1.453125 3.46875zm15.671875 9.890625l0 -16.59375l2.53125 0l0 2.359375q1.828125 -2.734375 5.28125 -2.734375q1.5 0 2.75 0.546875q1.265625 0.53125 1.890625 1.40625q0.625 0.875 0.875 2.078125q0.15625 0.78125 0.15625 2.734375l0 10.203125l-2.8125 0l0 -10.09375q0 -1.71875 -0.328125 -2.5625q-0.328125 -0.859375 -1.171875 -1.359375q-0.828125 -0.515625 -1.953125 -0.515625q-1.796875 0 -3.109375 1.140625q-1.296875 1.140625 -1.296875 4.328125l0 9.0625l-2.8125 0zm18.78125 0l0 -16.59375l2.8125 0l0 16.59375l-2.8125 0zm-0.625 -18.65625l2.078125 -4.375l3.6875 0l-3.4375 4.375l-2.328125 0z" fill-rule="nonzero"/>
    <path fill="#000000" fill-opacity="0.0" d="m202.70866 109.784775l57.952744 0" fill-rule="evenodd"/>
    <path stroke="#e3dce4" stroke-width="3.0" stroke-linejoin="round" stroke-linecap="butt" d="m202.70866 109.784775l39.95276 0" fill-rule="evenodd"/>
    <path fill="#e3dce4" stroke="#e3dce4" stroke-width="3.0" stroke-linecap="butt" d="m242.66142 114.739975l13.614273 -4.9552l-13.614273 -4.9551926z" fill-rule="evenodd"/>
    <path fill="#000000" fill-opacity="0.0" d="m463.3701 109.784775l57.95273 0" fill-rule="evenodd"/>
    <path stroke="#e3dce4" stroke-width="3.0" stroke-linejoin="round" stroke-linecap="butt" d="m463.3701 109.784775l39.95276 0" fill-rule="evenodd"/>
    <path fill="#e3dce4" stroke="#e3dce4" stroke-width="3.0" stroke-linecap="butt" d="m503.32285 114.739975l13.614288 -4.9552l-13.614288 -4.9551926z" fill-rule="evenodd"/>
    <path fill="#000000" fill-opacity="0.0" d="m852.0315 192.69817l240.78735 0l0 96.94487l-240.78735 0z" fill-rule="evenodd"/>
    <path stroke="#e3dce4" stroke-width="3.0" stroke-linejoin="round" stroke-linecap="butt" d="m852.0315 192.69817l240.78735 0l0 96.94487l-240.78735 0z" fill-rule="evenodd"/>
    <path fill="#e3dce4" d="m863.14087 232.41817l0 -22.90625l2.8125 0l0 8.21875q1.96875 -2.28125 4.96875 -2.28125q1.84375 0 3.203125 0.734375q1.359375 0.71875 1.9375 2.0q0.59375 1.28125 0.59375 3.71875l0 10.515625l-2.8125 0l0 -10.515625q0 -2.109375 -0.921875 -3.0625q-0.90625 -0.96875 -2.578125 -0.96875q-1.25 0 -2.359375 0.65625q-1.09375 0.640625 -1.5625 1.75q-0.46875 1.109375 -0.46875 3.0625l0 9.078125l-2.8125 0zm16.75 -8.296875q0 -4.609375 2.5625 -6.828125q2.140625 -1.84375 5.21875 -1.84375q3.421875 0 5.59375 2.25q2.171875 2.234375 2.171875 6.1875q0 3.203125 -0.96875 5.046875q-0.953125 1.828125 -2.796875 2.84375q-1.828125 1.015625 -4.0 1.015625q-3.484375 0 -5.640625 -2.234375q-2.140625 -2.234375 -2.140625 -6.4375zm2.890625 0q0 3.1875 1.390625 4.78125q1.390625 1.578125 3.5 1.578125q2.09375 0 3.484375 -1.59375q1.390625 -1.59375 1.390625 -4.859375q0 -3.078125 -1.40625 -4.65625q-1.390625 -1.59375 -3.46875 -1.59375q-2.109375 0 -3.5 1.578125q-1.390625 1.578125 -1.390625 4.765625zm14.828125 3.34375l2.78125 -0.4375q0.234375 1.671875 1.296875 2.5625q1.078125 0.890625 3.0 0.890625q1.9375 0 2.875 -0.78125q0.9375 -0.796875 0.9375 -1.859375q0 -0.953125 -0.828125 -1.5q-0.578125 -0.375 -2.875 -0.953125q-3.09375 -0.78125 -4.296875 -1.34375q-1.1875 -0.578125 -1.8125 -1.578125q-0.609375 -1.015625 -0.609375 -2.234375q0 -1.109375 0.5 -2.046875q0.515625 -0.953125 1.390625 -1.578125q0.65625 -0.484375 1.78125 -0.8125q1.140625 -0.34375 2.4375 -0.34375q1.953125 0 3.421875 0.5625q1.484375 0.5625 2.1875 1.53125q0.703125 0.953125 0.96875 2.5625l-2.75 0.375q-0.1875 -1.28125 -1.09375 -2.0q-0.890625 -0.71875 -2.53125 -0.71875q-1.9375 0 -2.765625 0.640625q-0.828125 0.640625 -0.828125 1.5q0 0.546875 0.34375 0.984375q0.34375 0.453125 1.078125 0.75q0.421875 0.15625 2.484375 0.71875q2.984375 0.796875 4.15625 1.3125q1.1875 0.5 1.859375 1.46875q0.671875 0.96875 0.671875 2.40625q0 1.40625 -0.828125 2.65625q-0.8125 1.234375 -2.359375 1.921875q-1.546875 0.671875 -3.5 0.671875q-3.234375 0 -4.9375 -1.34375q-1.6875 -1.34375 -2.15625 -3.984375zm17.125 11.3125l0 -22.953125l2.5625 0l0 2.15625q0.90625 -1.265625 2.046875 -1.890625q1.140625 -0.640625 2.765625 -0.640625q2.125 0 3.75 1.09375q1.625 1.09375 2.453125 3.09375q0.828125 1.984375 0.828125 4.359375q0 2.546875 -0.921875 4.59375q-0.90625 2.03125 -2.65625 3.125q-1.734375 1.078125 -3.65625 1.078125q-1.40625 0 -2.53125 -0.59375q-1.109375 -0.59375 -1.828125 -1.5l0 8.078125l-2.8125 0zm2.546875 -14.5625q0 3.203125 1.296875 4.734375q1.296875 1.53125 3.140625 1.53125q1.875 0 3.203125 -1.578125q1.34375 -1.59375 1.34375 -4.921875q0 -3.171875 -1.3125 -4.75q-1.296875 -1.578125 -3.109375 -1.578125q-1.796875 0 -3.1875 1.6875q-1.375 1.671875 -1.375 4.875zm15.265625 -11.46875l0 -3.234375l2.8125 0l0 3.234375l-2.8125 0zm0 19.671875l0 -16.59375l2.8125 0l0 16.59375l-2.8125 0zm13.234375 -2.515625l0.40625 2.484375q-1.1875 0.25 -2.125 0.25q-1.53125 0 -2.375 -0.484375q-0.84375 -0.484375 -1.1875 -1.265625q-0.34375 -0.796875 -0.34375 -3.328125l0 -9.546875l-2.0625 0l0 -2.1875l2.0625 0l0 -4.109375l2.796875 -1.6875l0 5.796875l2.828125 0l0 2.1875l-2.828125 0l0 9.703125q0 1.203125 0.140625 1.546875q0.15625 0.34375 0.484375 0.546875q0.34375 0.203125 0.96875 0.203125q0.46875 0 1.234375 -0.109375zm13.578125 0.46875q-1.5625 1.328125 -3.015625 1.875q-1.4375 0.546875 -3.09375 0.546875q-2.734375 0 -4.203125 -1.328125q-1.46875 -1.34375 -1.46875 -3.421875q0 -1.21875 0.546875 -2.21875q0.5625 -1.015625 1.453125 -1.625q0.90625 -0.609375 2.03125 -0.921875q0.828125 -0.21875 2.5 -0.421875q3.40625 -0.40625 5.015625 -0.96875q0.015625 -0.578125 0.015625 -0.734375q0 -1.71875 -0.796875 -2.421875q-1.078125 -0.953125 -3.203125 -0.953125q-1.984375 0 -2.9375 0.703125q-0.9375 0.6875 -1.390625 2.453125l-2.75 -0.375q0.375 -1.765625 1.234375 -2.84375q0.859375 -1.09375 2.484375 -1.671875q1.625 -0.59375 3.765625 -0.59375q2.125 0 3.453125 0.5q1.328125 0.5 1.953125 1.265625q0.625 0.75 0.875 1.90625q0.140625 0.71875 0.140625 2.59375l0 3.75q0 3.921875 0.171875 4.96875q0.1875 1.03125 0.71875 1.984375l-2.9375 0q-0.4375 -0.875 -0.5625 -2.046875zm-0.234375 -6.28125q-1.53125 0.625 -4.59375 1.0625q-1.734375 0.25 -2.453125 0.5625q-0.71875 0.3125 -1.109375 0.921875q-0.390625 0.59375 -0.390625 1.328125q0 1.125 0.84375 1.875q0.859375 0.75 2.5 0.75q1.625 0 2.890625 -0.703125q1.265625 -0.71875 1.859375 -1.953125q0.453125 -0.953125 0.453125 -2.8125l0 -1.03125zm7.140625 8.328125l0 -22.90625l2.8125 0l0 22.90625l-2.8125 0zm7.1875 -19.671875l0 -3.234375l2.8125 0l0 3.234375l-2.8125 0zm0 19.671875l0 -16.59375l2.8125 0l0 16.59375l-2.8125 0zm5.609375 0l0 -2.28125l10.5625 -12.125q-1.796875 0.09375 -3.171875 0.09375l-6.765625 0l0 -2.28125l13.5625 0l0 1.859375l-8.984375 10.53125l-1.734375 1.921875q1.890625 -0.140625 3.546875 -0.140625l7.671875 0l0 2.421875l-14.6875 0zm16.4375 -8.296875q0 -4.609375 2.5625 -6.828125q2.140625 -1.84375 5.21875 -1.84375q3.421875 0 5.59375 2.25q2.171875 2.234375 2.171875 6.1875q0 3.203125 -0.96875 5.046875q-0.953125 1.828125 -2.796875 2.84375q-1.828125 1.015625 -4.0 1.015625q-3.484375 0 -5.640625 -2.234375q-2.140625 -2.234375 -2.140625 -6.4375zm2.890625 0q0 3.1875 1.390625 4.78125q1.390625 1.578125 3.5 1.578125q2.09375 0 3.484375 -1.59375q1.390625 -1.59375 1.390625 -4.859375q0 -3.078125 -1.40625 -4.65625q-1.390625 -1.59375 -3.46875 -1.59375q-2.109375 0 -3.5 1.578125q-1.390625 1.578125 -1.390625 4.765625zm20.5625 8.296875l-6.3125 -16.59375l2.96875 0l3.5625 9.9375q0.578125 1.609375 1.0625 3.34375q0.375 -1.3125 1.046875 -3.15625l3.6875 -10.125l2.890625 0l-6.28125 16.59375l-2.625 0zm22.21875 -2.046875q-1.5625 1.328125 -3.015625 1.875q-1.4375 0.546875 -3.09375 0.546875q-2.734375 0 -4.203125 -1.328125q-1.46875 -1.34375 -1.46875 -3.421875q0 -1.21875 0.546875 -2.21875q0.5625 -1.015625 1.453125 -1.625q0.90625 -0.609375 2.03125 -0.921875q0.828125 -0.21875 2.5 -0.421875q3.40625 -0.40625 5.015625 -0.96875q0.015625 -0.578125 0.015625 -0.734375q0 -1.71875 -0.796875 -2.421875q-1.078125 -0.953125 -3.203125 -0.953125q-1.984375 0 -2.9375 0.703125q-0.9375 0.6875 -1.390625 2.453125l-2.75 -0.375q0.375 -1.765625 1.234375 -2.84375q0.859375 -1.09375 2.484375 -1.671875q1.625 -0.59375 3.765625 -0.59375q2.125 0 3.453125 0.5q1.328125 0.5 1.953125 1.265625q0.625 0.75 0.875 1.90625q0.140625 0.71875 0.140625 2.59375l0 3.75q0 3.921875 0.171875 4.96875q0.1875 1.03125 0.71875 1.984375l-2.9375 0q-0.4375 -0.875 -0.5625 -2.046875zm-0.234375 -6.28125q-1.53125 0.625 -4.59375 1.0625q-1.734375 0.25 -2.453125 0.5625q-0.71875 0.3125 -1.109375 0.921875q-0.390625 0.59375 -0.390625 1.328125q0 1.125 0.84375 1.875q0.859375 0.75 2.5 0.75q1.625 0 2.890625 -0.703125q1.265625 -0.71875 1.859375 -1.953125q0.453125 -0.953125 0.453125 -2.8125l0 -1.03125zm7.203125 8.328125l0 -16.59375l2.53125 0l0 2.359375q1.828125 -2.734375 5.28125 -2.734375q1.5 0 2.75 0.546875q1.265625 0.53125 1.890625 1.40625q0.625 0.875 0.875 2.078125q0.15625 0.78125 0.15625 2.734375l0 10.203125l-2.8125 0l0 -10.09375q0 -1.71875 -0.328125 -2.5625q-0.328125 -0.859375 -1.171875 -1.359375q-0.828125 -0.515625 -1.953125 -0.515625q-1.796875 0 -3.109375 1.140625q-1.296875 1.140625 -1.296875 4.328125l0 9.0625l-2.8125 0zm18.78125 0l0 -16.59375l2.8125 0l0 16.59375l-2.8125 0zm-0.625 -18.65625l2.078125 -4.375l3.6875 0l-3.4375 4.375l-2.328125 0z" fill-rule="nonzero"/>
    <path fill="#e3dce4" d="m863.14087 277.17755l0 -22.95314l2.5625 0l0 2.1562653q0.90625 -1.2656403 2.046875 -1.8906403q1.140625 -0.640625 2.765625 -0.640625q2.125 0 3.75 1.09375q1.625 1.0937653 2.453125 3.0937653q0.828125 1.984375 0.828125 4.359375q0 2.546875 -0.921875 4.59375q-0.90625 2.03125 -2.65625 3.125q-1.734375 1.078125 -3.65625 1.078125q-1.40625 0 -2.53125 -0.59375q-1.109375 -0.59375 -1.828125 -1.5l0 8.078125l-2.8125 0zm2.546875 -14.5625q0 3.203125 1.296875 4.734375q1.296875 1.53125 3.140625 1.53125q1.875 0 3.203125 -1.578125q1.34375 -1.59375 1.34375 -4.921875q0 -3.171875 -1.3125 -4.75q-1.296875 -1.578125 -3.109375 -1.578125q-1.796875 0 -3.1875 1.6875q-1.375 1.671875 -1.375 4.875zm15.21875 8.203125l0 -16.593765l2.53125 0l0 2.5156403q0.96875 -1.7656403 1.78125 -2.3281403q0.828125 -0.5625 1.8125 -0.5625q1.421875 0 2.890625 0.90625l-0.96875 2.6093903q-1.03125 -0.609375 -2.0625 -0.609375q-0.921875 0 -1.65625 0.5625q-0.734375 0.546875 -1.046875 1.53125q-0.46875 1.5 -0.46875 3.28125l0 8.6875l-2.8125 0zm15.296875 0l-6.3125 -16.593765l2.96875 0l3.5625 9.937515q0.578125 1.609375 1.0625 3.34375q0.375 -1.3125 1.046875 -3.15625l3.6875 -10.125015l2.890625 0l-6.28125 16.593765l-2.625 0zm11.390625 0l0 -16.593765l2.53125 0l0 2.3593903q1.828125 -2.7343903 5.28125 -2.7343903q1.5 0 2.75 0.546875q1.265625 0.53125 1.890625 1.40625q0.625 0.87501526 0.875 2.0781403q0.15625 0.78125 0.15625 2.734375l0 10.203125l-2.8125 0l0 -10.09375q0 -1.71875 -0.328125 -2.5625q-0.328125 -0.859375 -1.171875 -1.359375q-0.828125 -0.515625 -1.953125 -0.515625q-1.796875 0 -3.109375 1.140625q-1.296875 1.140625 -1.296875 4.328125l0 9.0625l-2.8125 0zm18.78125 0l0 -16.593765l2.8125 0l0 16.593765l-2.8125 0zm-0.625 -18.656265l2.078125 -4.375l3.6875 0l-3.4375 4.375l-2.328125 0zm23.5625 16.14064l0.40625 2.484375q-1.1875 0.25 -2.125 0.25q-1.53125 0 -2.375 -0.484375q-0.84375 -0.484375 -1.1875 -1.265625q-0.34375 -0.796875 -0.34375 -3.328125l0 -9.546875l-2.0625 0l0 -2.1875153l2.0625 0l0 -4.109375l2.796875 -1.6875l0 5.796875l2.828125 0l0 2.1875153l-2.828125 0l0 9.703125q0 1.203125 0.140625 1.546875q0.15625 0.34375 0.484375 0.546875q0.34375 0.203125 0.96875 0.203125q0.46875 0 1.234375 -0.109375zm2.625 8.90625l-0.3125 -2.640625q0.921875 0.25 1.609375 0.25q0.9375 0 1.5 -0.3125q0.5625 -0.3125 0.921875 -0.875q0.265625 -0.421875 0.859375 -2.09375q0.078125 -0.234375 0.25 -0.6875l-6.296875 -16.625015l3.03125 0l3.453125 9.60939q0.671875 1.828125 1.203125 3.84375q0.484375 -1.9375 1.15625 -3.78125l3.546875 -9.67189l2.8125 0l-6.3125 16.875015q-1.015625 2.734375 -1.578125 3.765625q-0.75 1.390625 -1.71875 2.03125q-0.96875 0.65625 -2.3125 0.65625q-0.8125 0 -1.8125 -0.34375zm4.484375 -25.04689l2.078125 -4.375l3.6875 0l-3.4375 4.375l-2.328125 0zm22.40625 18.656265l0 -2.09375q-1.578125 2.46875 -4.640625 2.46875q-1.984375 0 -3.65625 -1.09375q-1.65625 -1.09375 -2.578125 -3.046875q-0.90625 -1.96875 -0.90625 -4.515625q0 -2.484375 0.828125 -4.5q0.828125 -2.03125 2.484375 -3.1093903q1.65625 -1.078125 3.703125 -1.078125q1.5 0 2.671875 0.640625q1.171875 0.625 1.90625 1.6406403l0 -8.218765l2.796875 0l0 22.906265l-2.609375 0zm-8.890625 -8.28125q0 3.1875 1.34375 4.765625q1.34375 1.578125 3.171875 1.578125q1.84375 0 3.125 -1.5q1.296875 -1.515625 1.296875 -4.609375q0 -3.40625 -1.3125 -5.0q-1.3125 -1.59375 -3.234375 -1.59375q-1.875 0 -3.140625 1.53125q-1.25 1.53125 -1.25 4.828125zm27.28125 2.9375l2.90625 0.359375q-0.6875 2.546875 -2.546875 3.953125q-1.859375 1.40625 -4.75 1.40625q-3.640625 0 -5.78125 -2.234375q-2.125 -2.25 -2.125 -6.296875q0 -4.1875 2.15625 -6.5q2.15625 -2.3125153 5.59375 -2.3125153q3.328125 0 5.4375 2.2656403q2.109375 2.265625 2.109375 6.375q0 0.25 -0.015625 0.75l-12.375 0q0.15625 2.734375 1.546875 4.1875q1.390625 1.453125 3.46875 1.453125q1.546875 0 2.640625 -0.8125q1.09375 -0.8125 1.734375 -2.59375zm-9.234375 -4.546875l9.265625 0q-0.1875 -2.09375 -1.0625 -3.140625q-1.34375 -1.625 -3.484375 -1.625q-1.9375 0 -3.265625 1.296875q-1.3125 1.296875 -1.453125 3.46875zm15.671875 9.890625l0 -16.593765l2.53125 0l0 2.3593903q1.828125 -2.7343903 5.28125 -2.7343903q1.5 0 2.75 0.546875q1.265625 0.53125 1.890625 1.40625q0.625 0.87501526 0.875 2.0781403q0.15625 0.78125 0.15625 2.734375l0 10.203125l-2.8125 0l0 -10.09375q0 -1.71875 -0.328125 -2.5625q-0.328125 -0.859375 -1.171875 -1.359375q-0.828125 -0.515625 -1.953125 -0.515625q-1.796875 0 -3.109375 1.140625q-1.296875 1.140625 -1.296875 4.328125l0 9.0625l-2.8125 0z" fill-rule="nonzero"/>
    <path fill="#000000" fill-opacity="0.0" d="m1220.8188 192.69817l240.78748 0l0 96.94487l-240.78748 0z" fill-rule="evenodd"/>
    <path stroke="#e3dce4" stroke-width="3.0" stroke-linejoin="round" stroke-linecap="butt" d="m1220.8188 192.69817l240.78748 0l0 96.94487l-240.78748 0z" fill-rule="evenodd"/>
    <path fill="#e3dce4" d="m1231.9282 232.41817l0 -22.90625l2.8125 0l0 8.21875q1.96875 -2.28125 4.96875 -2.28125q1.84375 0 3.203125 0.734375q1.359375 0.71875 1.9375 2.0q0.59375 1.28125 0.59375 3.71875l0 10.515625l-2.8125 0l0 -10.515625q0 -2.109375 -0.921875 -3.0625q-0.90625 -0.96875 -2.578125 -0.96875q-1.25 0 -2.359375 0.65625q-1.09375 0.640625 -1.5625 1.75q-0.46875 1.109375 -0.46875 3.0625l0 9.078125l-2.8125 0zm16.75 -8.296875q0 -4.609375 2.5625 -6.828125q2.140625 -1.84375 5.21875 -1.84375q3.421875 0 5.59375 2.25q2.171875 2.234375 2.171875 6.1875q0 3.203125 -0.96875 5.046875q-0.953125 1.828125 -2.796875 2.84375q-1.828125 1.015625 -4.0 1.015625q-3.484375 0 -5.640625 -2.234375q-2.140625 -2.234375 -2.140625 -6.4375zm2.890625 0q0 3.1875 1.390625 4.78125q1.390625 1.578125 3.5 1.578125q2.09375 0 3.484375 -1.59375q1.390625 -1.59375 1.390625 -4.859375q0 -3.078125 -1.40625 -4.65625q-1.390625 -1.59375 -3.46875 -1.59375q-2.109375 0 -3.5 1.578125q-1.390625 1.578125 -1.390625 4.765625zm14.828125 3.34375l2.78125 -0.4375q0.234375 1.671875 1.296875 2.5625q1.078125 0.890625 3.0 0.890625q1.9375 0 2.875 -0.78125q0.9375 -0.796875 0.9375 -1.859375q0 -0.953125 -0.828125 -1.5q-0.578125 -0.375 -2.875 -0.953125q-3.09375 -0.78125 -4.296875 -1.34375q-1.1875 -0.578125 -1.8125 -1.578125q-0.609375 -1.015625 -0.609375 -2.234375q0 -1.109375 0.5 -2.046875q0.515625 -0.953125 1.390625 -1.578125q0.65625 -0.484375 1.78125 -0.8125q1.140625 -0.34375 2.4375 -0.34375q1.953125 0 3.421875 0.5625q1.484375 0.5625 2.1875 1.53125q0.703125 0.953125 0.96875 2.5625l-2.75 0.375q-0.1875 -1.28125 -1.09375 -2.0q-0.890625 -0.71875 -2.53125 -0.71875q-1.9375 0 -2.765625 0.640625q-0.828125 0.640625 -0.828125 1.5q0 0.546875 0.34375 0.984375q0.34375 0.453125 1.078125 0.75q0.421875 0.15625 2.484375 0.71875q2.984375 0.796875 4.15625 1.3125q1.1875 0.5 1.859375 1.46875q0.671875 0.96875 0.671875 2.40625q0 1.40625 -0.828125 2.65625q-0.8125 1.234375 -2.359375 1.921875q-1.546875 0.671875 -3.5 0.671875q-3.234375 0 -4.9375 -1.34375q-1.6875 -1.34375 -2.15625 -3.984375zm17.125 11.3125l0 -22.953125l2.5625 0l0 2.15625q0.90625 -1.265625 2.046875 -1.890625q1.140625 -0.640625 2.765625 -0.640625q2.125 0 3.75 1.09375q1.625 1.09375 2.453125 3.09375q0.828125 1.984375 0.828125 4.359375q0 2.546875 -0.921875 4.59375q-0.90625 2.03125 -2.65625 3.125q-1.734375 1.078125 -3.65625 1.078125q-1.40625 0 -2.53125 -0.59375q-1.109375 -0.59375 -1.828125 -1.5l0 8.078125l-2.8125 0zm2.546875 -14.5625q0 3.203125 1.296875 4.734375q1.296875 1.53125 3.140625 1.53125q1.875 0 3.203125 -1.578125q1.34375 -1.59375 1.34375 -4.921875q0 -3.171875 -1.3125 -4.75q-1.296875 -1.578125 -3.109375 -1.578125q-1.796875 0 -3.1875 1.6875q-1.375 1.671875 -1.375 4.875zm15.265625 -11.46875l0 -3.234375l2.8125 0l0 3.234375l-2.8125 0zm0 19.671875l0 -16.59375l2.8125 0l0 16.59375l-2.8125 0zm13.234375 -2.515625l0.40625 2.484375q-1.1875 0.25 -2.125 0.25q-1.53125 0 -2.375 -0.484375q-0.84375 -0.484375 -1.1875 -1.265625q-0.34375 -0.796875 -0.34375 -3.328125l0 -9.546875l-2.0625 0l0 -2.1875l2.0625 0l0 -4.109375l2.796875 -1.6875l0 5.796875l2.828125 0l0 2.1875l-2.828125 0l0 9.703125q0 1.203125 0.140625 1.546875q0.15625 0.34375 0.484375 0.546875q0.34375 0.203125 0.96875 0.203125q0.46875 0 1.234375 -0.109375zm13.578125 0.46875q-1.5625 1.328125 -3.015625 1.875q-1.4375 0.546875 -3.09375 0.546875q-2.734375 0 -4.203125 -1.328125q-1.46875 -1.34375 -1.46875 -3.421875q0 -1.21875 0.546875 -2.21875q0.5625 -1.015625 1.453125 -1.625q0.90625 -0.609375 2.03125 -0.921875q0.828125 -0.21875 2.5 -0.421875q3.40625 -0.40625 5.015625 -0.96875q0.015625 -0.578125 0.015625 -0.734375q0 -1.71875 -0.796875 -2.421875q-1.078125 -0.953125 -3.203125 -0.953125q-1.984375 0 -2.9375 0.703125q-0.9375 0.6875 -1.390625 2.453125l-2.75 -0.375q0.375 -1.765625 1.234375 -2.84375q0.859375 -1.09375 2.484375 -1.671875q1.625 -0.59375 3.765625 -0.59375q2.125 0 3.453125 0.5q1.328125 0.5 1.953125 1.265625q0.625 0.75 0.875 1.90625q0.140625 0.71875 0.140625 2.59375l0 3.75q0 3.921875 0.171875 4.96875q0.1875 1.03125 0.71875 1.984375l-2.9375 0q-0.4375 -0.875 -0.5625 -2.046875zm-0.234375 -6.28125q-1.53125 0.625 -4.59375 1.0625q-1.734375 0.25 -2.453125 0.5625q-0.71875 0.3125 -1.109375 0.921875q-0.390625 0.59375 -0.390625 1.328125q0 1.125 0.84375 1.875q0.859375 0.75 2.5 0.75q1.625 0 2.890625 -0.703125q1.265625 -0.71875 1.859375 -1.953125q0.453125 -0.953125 0.453125 -2.8125l0 -1.03125zm7.140625 8.328125l0 -22.90625l2.8125 0l0 22.90625l-2.8125 0zm7.1875 -19.671875l0 -3.234375l2.8125 0l0 3.234375l-2.8125 0zm0 19.671875l0 -16.59375l2.8125 0l0 16.59375l-2.8125 0zm5.609375 0l0 -2.28125l10.5625 -12.125q-1.796875 0.09375 -3.171875 0.09375l-6.765625 0l0 -2.28125l13.5625 0l0 1.859375l-8.984375 10.53125l-1.734375 1.921875q1.890625 -0.140625 3.546875 -0.140625l7.671875 0l0 2.421875l-14.6875 0zm16.4375 -8.296875q0 -4.609375 2.5625 -6.828125q2.140625 -1.84375 5.21875 -1.84375q3.421875 0 5.59375 2.25q2.171875 2.234375 2.171875 6.1875q0 3.203125 -0.96875 5.046875q-0.953125 1.828125 -2.796875 2.84375q-1.828125 1.015625 -4.0 1.015625q-3.484375 0 -5.640625 -2.234375q-2.140625 -2.234375 -2.140625 -6.4375zm2.890625 0q0 3.1875 1.390625 4.78125q1.390625 1.578125 3.5 1.578125q2.09375 0 3.484375 -1.59375q1.390625 -1.59375 1.390625 -4.859375q0 -3.078125 -1.40625 -4.65625q-1.390625 -1.59375 -3.46875 -1.59375q-2.109375 0 -3.5 1.578125q-1.390625 1.578125 -1.390625 4.765625zm20.5625 8.296875l-6.3125 -16.59375l2.96875 0l3.5625 9.9375q0.578125 1.609375 1.0625 3.34375q0.375 -1.3125 1.046875 -3.15625l3.6875 -10.125l2.890625 0l-6.28125 16.59375l-2.625 0zm22.21875 -2.046875q-1.5625 1.328125 -3.015625 1.875q-1.4375 0.546875 -3.09375 0.546875q-2.734375 0 -4.203125 -1.328125q-1.46875 -1.34375 -1.46875 -3.421875q0 -1.21875 0.546875 -2.21875q0.5625 -1.015625 1.453125 -1.625q0.90625 -0.609375 2.03125 -0.921875q0.828125 -0.21875 2.5 -0.421875q3.40625 -0.40625 5.015625 -0.96875q0.015625 -0.578125 0.015625 -0.734375q0 -1.71875 -0.796875 -2.421875q-1.078125 -0.953125 -3.203125 -0.953125q-1.984375 0 -2.9375 0.703125q-0.9375 0.6875 -1.390625 2.453125l-2.75 -0.375q0.375 -1.765625 1.234375 -2.84375q0.859375 -1.09375 2.484375 -1.671875q1.625 -0.59375 3.765625 -0.59375q2.125 0 3.453125 0.5q1.328125 0.5 1.953125 1.265625q0.625 0.75 0.875 1.90625q0.140625 0.71875 0.140625 2.59375l0 3.75q0 3.921875 0.171875 4.96875q0.1875 1.03125 0.71875 1.984375l-2.9375 0q-0.4375 -0.875 -0.5625 -2.046875zm-0.234375 -6.28125q-1.53125 0.625 -4.59375 1.0625q-1.734375 0.25 -2.453125 0.5625q-0.71875 0.3125 -1.109375 0.921875q-0.390625 0.59375 -0.390625 1.328125q0 1.125 0.84375 1.875q0.859375 0.75 2.5 0.75q1.625 0 2.890625 -0.703125q1.265625 -0.71875 1.859375 -1.953125q0.453125 -0.953125 0.453125 -2.8125l0 -1.03125zm7.203125 8.328125l0 -16.59375l2.53125 0l0 2.359375q1.828125 -2.734375 5.28125 -2.734375q1.5 0 2.75 0.546875q1.265625 0.53125 1.890625 1.40625q0.625 0.875 0.875 2.078125q0.15625 0.78125 0.15625 2.734375l0 10.203125l-2.8125 0l0 -10.09375q0 -1.71875 -0.328125 -2.5625q-0.328125 -0.859375 -1.171875 -1.359375q-0.828125 -0.515625 -1.953125 -0.515625q-1.796875 0 -3.109375 1.140625q-1.296875 1.140625 -1.296875 4.328125l0 9.0625l-2.8125 0zm18.78125 0l0 -16.59375l2.8125 0l0 16.59375l-2.8125 0zm-0.625 -18.65625l2.078125 -4.375l3.6875 0l-3.4375 4.375l-2.328125 0z" fill-rule="nonzero"/>
    <path fill="#000000" fill-opacity="0.0" d="m1092.8188 241.17061l128.0 -1.0393677" fill-rule="evenodd"/>
    <path stroke="#e3dce4" stroke-width="3.0" stroke-linejoin="round" stroke-linecap="butt" d="m1092.8188 241.17061l110.00061 -0.893219" fill-rule="evenodd"/>
    <path fill="#e3dce4" stroke="#e3dce4" stroke-width="3.0" stroke-linecap="butt" d="m1202.8597 245.23242l13.573608 -5.0655823l-13.654053 -4.8444824z" fill-rule="evenodd"/>
    <path fill="#000000" fill-opacity="0.0" d="m1092.8188 241.17061c32.0 0 48.0 33.204727 64.0 66.40944c16.0 33.204742 32.0 66.409454 64.0 66.409454" fill-rule="evenodd"/>
    <path stroke="#e3dce4" stroke-width="3.0" stroke-linejoin="round" stroke-linecap="butt" d="m1092.8188 241.17061c32.0 0 48.0 33.204727 64.0 66.40944c8.0 16.602356 16.0 33.204742 26.0 45.656494c5.0 6.225891 10.5 11.414124 16.75 15.045898c0.78125 0.4539795 1.5742188 0.88360596 2.3795166 1.2879333c0.40246582 0.20217896 0.80810547 0.39801025 1.216919 0.5873413l0.060302734 0.027374268" fill-rule="evenodd"/>
    <path fill="#e3dce4" stroke="#e3dce4" stroke-width="3.0" stroke-linecap="butt" d="m1202.1782 375.02832l14.354004 -1.9657593l-12.259399 -7.7207336z" fill-rule="evenodd"/>
    <path fill="#000000" fill-opacity="0.0" d="m1220.8188 344.9134l202.70874 0l0 58.173218l-202.70874 0z" fill-rule="evenodd"/>
    <path stroke="#e3dce4" stroke-width="3.0" stroke-linejoin="round" stroke-linecap="butt" d="m1220.8188 344.9134l202.70874 0l0 58.173218l-202.70874 0z" fill-rule="evenodd"/>
    <path fill="#e3dce4" d="m1232.2876 384.6334l0 -22.90625l7.890625 0q2.671875 0 4.078125 0.328125q1.96875 0.453125 3.359375 1.640625q1.8125 1.53125 2.703125 3.921875q0.90625 2.375 0.90625 5.4375q0 2.609375 -0.609375 4.625q-0.609375 2.015625 -1.5625 3.34375q-0.953125 1.3125 -2.09375 2.078125q-1.125 0.75 -2.734375 1.140625q-1.59375 0.390625 -3.671875 0.390625l-8.265625 0zm3.03125 -2.703125l4.890625 0q2.265625 0 3.546875 -0.421875q1.296875 -0.421875 2.0625 -1.1875q1.078125 -1.078125 1.671875 -2.890625q0.609375 -1.828125 0.609375 -4.421875q0 -3.59375 -1.1875 -5.515625q-1.171875 -1.9375 -2.859375 -2.59375q-1.21875 -0.46875 -3.921875 -0.46875l-4.8125 0l0 17.5zm20.5 -10.6875l0 -3.203125l3.203125 0l0 3.203125l-3.203125 0zm0 13.390625l0 -3.203125l3.203125 0l0 3.203125l-3.203125 0zm17.0 0l0 -16.59375l2.515625 0l0 2.328125q0.78125 -1.21875 2.078125 -1.953125q1.296875 -0.75 2.953125 -0.75q1.84375 0 3.015625 0.765625q1.1875 0.765625 1.671875 2.140625q1.96875 -2.90625 5.125 -2.90625q2.46875 0 3.796875 1.375q1.328125 1.359375 1.328125 4.203125l0 11.390625l-2.796875 0l0 -10.453125q0 -1.6875 -0.28125 -2.421875q-0.265625 -0.75 -0.984375 -1.203125q-0.71875 -0.453125 -1.6875 -0.453125q-1.75 0 -2.90625 1.171875q-1.15625 1.15625 -1.15625 3.71875l0 9.640625l-2.8125 0l0 -10.78125q0 -1.875 -0.6875 -2.8125q-0.6875 -0.9375 -2.25 -0.9375q-1.1875 0 -2.203125 0.625q-1.0 0.625 -1.453125 1.828125q-0.453125 1.203125 -0.453125 3.46875l0 8.609375l-2.8125 0zm26.625 0l0 -16.59375l2.53125 0l0 2.515625q0.96875 -1.765625 1.78125 -2.328125q0.828125 -0.5625 1.8125 -0.5625q1.421875 0 2.890625 0.90625l-0.96875 2.609375q-1.03125 -0.609375 -2.0625 -0.609375q-0.921875 0 -1.65625 0.5625q-0.734375 0.546875 -1.046875 1.53125q-0.46875 1.5 -0.46875 3.28125l0 8.6875l-2.8125 0zm16.828125 -2.515625l0.40625 2.484375q-1.1875 0.25 -2.125 0.25q-1.53125 0 -2.375 -0.484375q-0.84375 -0.484375 -1.1875 -1.265625q-0.34375 -0.796875 -0.34375 -3.328125l0 -9.546875l-2.0625 0l0 -2.1875l2.0625 0l0 -4.109375l2.796875 -1.6875l0 5.796875l2.828125 0l0 2.1875l-2.828125 0l0 9.703125q0 1.203125 0.140625 1.546875q0.15625 0.34375 0.484375 0.546875q0.34375 0.203125 0.96875 0.203125q0.46875 0 1.234375 -0.109375zm7.359375 2.515625l-6.3125 -16.59375l2.96875 0l3.5625 9.9375q0.578125 1.609375 1.0625 3.34375q0.375 -1.3125 1.046875 -3.15625l3.6875 -10.125l2.890625 0l-6.28125 16.59375l-2.625 0zm12.375 0l0 -16.59375l2.8125 0l0 16.59375l-2.8125 0zm-0.625 -18.65625l2.078125 -4.375l3.6875 0l-3.4375 4.375l-2.328125 0z" fill-rule="nonzero"/>
    <path fill="#000000" fill-opacity="0.0" d="m724.0315 109.784775c32.0 0 48.0 33.204727 64.0 66.409454c16.0 33.204727 32.0 66.40944 64.0 66.40944" fill-rule="evenodd"/>
    <path stroke="#e3dce4" stroke-width="3.0" stroke-linejoin="round" stroke-linecap="butt" d="m724.0315 109.784775c32.0 0 48.0 33.204727 64.0 66.409454c8.0 16.602356 16.0 33.204727 26.0 45.656494c5.0 6.225891 10.5 11.414124 16.75 15.045883c0.78125 0.45396423 1.5742188 0.8836212 2.3794556 1.2879333c0.40252686 0.2021637 0.80810547 0.397995 1.216919 0.58735657l0.060302734 0.02734375" fill-rule="evenodd"/>
    <path fill="#e3dce4" stroke="#e3dce4" stroke-width="3.0" stroke-linecap="butt" d="m833.3908 243.64249l14.354065 -1.9657593l-12.259399 -7.7207336z" fill-rule="evenodd"/>
    <path fill="#000000" fill-opacity="0.0" d="m1597.1024 80.698166l202.70862 0l0 58.173218l-202.70862 0z" fill-rule="evenodd"/>
    <path stroke="#e3dce4" stroke-width="3.0" stroke-linejoin="round" stroke-linecap="butt" d="m1597.1024 80.698166l202.70862 0l0 58.173218l-202.70862 0z" fill-rule="evenodd"/>
    <path fill="#e3dce4" d="m1608.0868 126.80879l-0.3125 -2.640625q0.921875 0.25 1.609375 0.25q0.9375 0 1.5 -0.3125q0.5625 -0.3125 0.921875 -0.875q0.265625 -0.421875 0.859375 -2.09375q0.078125 -0.234375 0.25 -0.6875l-6.296875 -16.625l3.03125 0l3.453125 9.609375q0.671875 1.828125 1.203125 3.84375q0.484375 -1.9375 1.15625 -3.78125l3.546875 -9.671875l2.8125 0l-6.3125 16.875q-1.015625 2.734375 -1.578125 3.765625q-0.75 1.390625 -1.71875 2.03125q-0.96875 0.65625 -2.3125 0.65625q-0.8125 0 -1.8125 -0.34375zm15.078125 -14.6875q0 -4.609375 2.5625 -6.828125q2.140625 -1.84375 5.21875 -1.84375q3.421875 0 5.59375 2.25q2.171875 2.234375 2.171875 6.1875q0 3.203125 -0.96875 5.046875q-0.953125 1.828125 -2.796875 2.84375q-1.828125 1.015625 -4.0 1.015625q-3.484375 0 -5.640625 -2.234375q-2.140625 -2.234375 -2.140625 -6.4375zm2.890625 0q0 3.1875 1.390625 4.78125q1.390625 1.578125 3.5 1.578125q2.09375 0 3.484375 -1.59375q1.390625 -1.59375 1.390625 -4.859375q0 -3.078125 -1.40625 -4.65625q-1.390625 -1.59375 -3.46875 -1.59375q-2.109375 0 -3.5 1.578125q-1.390625 1.578125 -1.390625 4.765625zm22.09375 5.78125l0.40625 2.484375q-1.1875 0.25 -2.125 0.25q-1.53125 0 -2.375 -0.484375q-0.84375 -0.484375 -1.1875 -1.265625q-0.34375 -0.796875 -0.34375 -3.328125l0 -9.546875l-2.0625 0l0 -2.1875l2.0625 0l0 -4.109375l2.796875 -1.6875l0 5.796875l2.828125 0l0 2.1875l-2.828125 0l0 9.703125q0 1.203125 0.140625 1.546875q0.15625 0.34375 0.484375 0.546875q0.34375 0.203125 0.96875 0.203125q0.46875 0 1.234375 -0.109375zm13.578125 0.46875q-1.5625 1.328125 -3.015625 1.875q-1.4375 0.546875 -3.09375 0.546875q-2.734375 0 -4.203125 -1.328125q-1.46875 -1.34375 -1.46875 -3.421875q0 -1.21875 0.546875 -2.21875q0.5625 -1.015625 1.453125 -1.625q0.90625 -0.609375 2.03125 -0.921875q0.828125 -0.21875 2.5 -0.421875q3.40625 -0.40625 5.015625 -0.96875q0.015625 -0.578125 0.015625 -0.734375q0 -1.71875 -0.796875 -2.421875q-1.078125 -0.953125 -3.203125 -0.953125q-1.984375 0 -2.9375 0.703125q-0.9375 0.6875 -1.390625 2.453125l-2.75 -0.375q0.375 -1.765625 1.234375 -2.84375q0.859375 -1.09375 2.484375 -1.671875q1.625 -0.59375 3.765625 -0.59375q2.125 0 3.453125 0.5q1.328125 0.5 1.953125 1.265625q0.625 0.75 0.875 1.90625q0.140625 0.71875 0.140625 2.59375l0 3.75q0 3.921875 0.171875 4.96875q0.1875 1.03125 0.71875 1.984375l-2.9375 0q-0.4375 -0.875 -0.5625 -2.046875zm-0.234375 -6.28125q-1.53125 0.625 -4.59375 1.0625q-1.734375 0.25 -2.453125 0.5625q-0.71875 0.3125 -1.109375 0.921875q-0.390625 0.59375 -0.390625 1.328125q0 1.125 0.84375 1.875q0.859375 0.75 2.5 0.75q1.625 0 2.890625 -0.703125q1.265625 -0.71875 1.859375 -1.953125q0.453125 -0.953125 0.453125 -2.8125l0 -1.03125zm11.8125 8.328125l-6.3125 -16.59375l2.96875 0l3.5625 9.9375q0.578125 1.609375 1.0625 3.34375q0.375 -1.3125 1.046875 -3.15625l3.6875 -10.125l2.890625 0l-6.28125 16.59375l-2.625 0zm22.265625 0l0 -2.4375q-1.9375 2.8125 -5.265625 2.8125q-1.46875 0 -2.75 -0.5625q-1.265625 -0.5625 -1.890625 -1.40625q-0.609375 -0.859375 -0.859375 -2.09375q-0.171875 -0.828125 -0.171875 -2.625l0 -10.28125l2.8125 0l0 9.203125q0 2.203125 0.171875 2.96875q0.265625 1.109375 1.125 1.75q0.859375 0.625 2.125 0.625q1.265625 0 2.375 -0.640625q1.109375 -0.65625 1.5625 -1.765625q0.46875 -1.125 0.46875 -3.25l0 -8.890625l2.8125 0l0 16.59375l-2.515625 0zm6.90625 -19.640625l0 -3.265625l2.8125 0l0 3.265625l-2.8125 0zm-3.5625 26.078125l0.53125 -2.390625q0.84375 0.21875 1.328125 0.21875q0.859375 0 1.28125 -0.578125q0.421875 -0.5625 0.421875 -2.84375l0 -17.4375l2.8125 0l0 17.5q0 3.0625 -0.796875 4.265625q-1.015625 1.5625 -3.375 1.5625q-1.140625 0 -2.203125 -0.296875zm11.671875 -6.4375l0 -16.59375l2.8125 0l0 16.59375l-2.8125 0zm-0.625 -18.65625l2.078125 -4.375l3.6875 0l-3.4375 4.375l-2.328125 0zm16.296875 13.703125l2.78125 -0.4375q0.234375 1.671875 1.296875 2.5625q1.078125 0.890625 3.0 0.890625q1.9375 0 2.875 -0.78125q0.9375 -0.796875 0.9375 -1.859375q0 -0.953125 -0.828125 -1.5q-0.578125 -0.375 -2.875 -0.953125q-3.09375 -0.78125 -4.296875 -1.34375q-1.1875 -0.578125 -1.8125 -1.578125q-0.609375 -1.015625 -0.609375 -2.234375q0 -1.109375 0.5 -2.046875q0.515625 -0.953125 1.390625 -1.578125q0.65625 -0.484375 1.78125 -0.8125q1.140625 -0.34375 2.4375 -0.34375q1.953125 0 3.421875 0.5625q1.484375 0.5625 2.1875 1.53125q0.703125 0.953125 0.96875 2.5625l-2.75 0.375q-0.1875 -1.28125 -1.09375 -2.0q-0.890625 -0.71875 -2.53125 -0.71875q-1.9375 0 -2.765625 0.640625q-0.828125 0.640625 -0.828125 1.5q0 0.546875 0.34375 0.984375q0.34375 0.453125 1.078125 0.75q0.421875 0.15625 2.484375 0.71875q2.984375 0.796875 4.15625 1.3125q1.1875 0.5 1.859375 1.46875q0.671875 0.96875 0.671875 2.40625q0 1.40625 -0.828125 2.65625q-0.8125 1.234375 -2.359375 1.921875q-1.546875 0.671875 -3.5 0.671875q-3.234375 0 -4.9375 -1.34375q-1.6875 -1.34375 -2.15625 -3.984375zm28.484375 -0.390625l2.90625 0.359375q-0.6875 2.546875 -2.546875 3.953125q-1.859375 1.40625 -4.75 1.40625q-3.640625 0 -5.78125 -2.234375q-2.125 -2.25 -2.125 -6.296875q0 -4.1875 2.15625 -6.5q2.15625 -2.3125 5.59375 -2.3125q3.328125 0 5.4375 2.265625q2.109375 2.265625 2.109375 6.375q0 0.25 -0.015625 0.75l-12.375 0q0.15625 2.734375 1.546875 4.1875q1.390625 1.453125 3.46875 1.453125q1.546875 0 2.640625 -0.8125q1.09375 -0.8125 1.734375 -2.59375zm-9.234375 -4.546875l9.265625 0q-0.1875 -2.09375 -1.0625 -3.140625q-1.34375 -1.625 -3.484375 -1.625q-1.9375 0 -3.265625 1.296875q-1.3125 1.296875 -1.453125 3.46875z" fill-rule="nonzero"/>
    <path fill="#000000" fill-opacity="0.0" d="m1461.6063 241.17061c33.874023 0 50.811035 -33.76378 67.74805 -67.52756c16.937012 -33.76378 33.874023 -67.527565 67.74805 -67.527565" fill-rule="evenodd"/>
    <path stroke="#e3dce4" stroke-width="3.0" stroke-linejoin="round" stroke-linecap="butt" d="m1461.6063 241.17061c33.874023 0 50.811035 -33.76378 67.74805 -67.52756c8.468506 -16.881897 16.937012 -33.76378 27.522583 -46.4252c5.2928467 -6.3307114 11.114868 -11.6063 17.730957 -15.299217c0.8269043 -0.4616089 1.6663818 -0.89849854 2.5186768 -1.3096237c0.42626953 -0.20555878 0.8555908 -0.40468597 1.2883301 -0.59723663c0.2163086 -0.09627533 0.43347168 -0.19091797 0.65148926 -0.28388977l0.37109375 -0.15486145" fill-rule="evenodd"/>
    <path fill="#e3dce4" stroke="#e3dce4" stroke-width="3.0" stroke-linecap="butt" d="m1580.3894 114.435936l12.408936 -7.4780197l-14.312622 -2.2478256z" fill-rule="evenodd"/>
    <path fill="#000000" fill-opacity="0.0" d="m1799.811 109.784775l57.95276 0" fill-rule="evenodd"/>
    <path stroke="#e3dce4" stroke-width="3.0" stroke-linejoin="round" stroke-linecap="butt" d="m1799.811 109.784775l39.95276 0" fill-rule="evenodd"/>
    <path fill="#e3dce4" stroke="#e3dce4" stroke-width="3.0" stroke-linecap="butt" d="m1839.7638 114.739975l13.614258 -4.9552l-13.614258 -4.9551926z" fill-rule="evenodd"/>
    <path fill="#000000" fill-opacity="0.0" d="m724.0315 110.28871l873.0709 -0.50393677" fill-rule="evenodd"/>
    <path stroke="#e3dce4" stroke-width="3.0" stroke-linejoin="round" stroke-linecap="butt" d="m724.0315 110.28871l855.0709 -0.49354553" fill-rule="evenodd"/>
    <path fill="#e3dce4" stroke="#e3dce4" stroke-width="3.0" stroke-linecap="butt" d="m1579.1052 114.75037l13.61145 -4.9630585l-13.6171875 -4.9473343z" fill-rule="evenodd"/>
  </g>
</svg>
