<?xml version="1.0" standalone="no"?>
<!DOCTYPE svg PUBLIC "-//W3C//DTD SVG 20010904//EN"
 "http://www.w3.org/TR/2001/REC-SVG-20010904/DTD/svg10.dtd">
<svg version="1.0" xmlns="http://www.w3.org/2000/svg"
 width="382.000000pt" height="382.000000pt" viewBox="0 0 382.000000 382.000000"
 preserveAspectRatio="xMidYMid meet">
<metadata>
Created by potrace 1.11, written by Peter Selinger 2001-2013
</metadata>
<g transform="translate(0.000000,382.000000) scale(0.100000,-0.100000)"
fill="#000000" stroke="none">
<path d="M1683 3771 c-154 -60 -151 -236 5 -289 18 -6 39 -9 47 -6 9 4 15 0
16 -7 0 -8 2 -21 3 -29 2 -8 6 -41 9 -72 6 -48 4 -58 -11 -62 -16 -4 -85 -16
-127 -22 -11 -1 -31 -6 -45 -12 -14 -5 -28 -10 -32 -11 -5 0 -9 -1 -10 -2 -2
0 -10 -2 -18 -4 -35 -7 -170 -60 -225 -88 -68 -34 -186 -108 -228 -143 -16
-13 -34 -24 -40 -24 -7 1 -33 28 -60 62 -42 55 -46 63 -33 77 44 48 55 146 23
195 -55 83 -167 84 -262 1 -127 -112 -248 -244 -266 -293 -43 -112 29 -211
149 -204 30 1 64 16 103 44 13 9 25 5 60 -23 91 -72 89 -56 19 -160 -126 -190
-205 -395 -235 -612 -5 -39 -10 -47 -23 -43 -9 3 -42 6 -72 7 -72 3 -75 5 -78
37 -8 104 -114 177 -204 139 -49 -21 -87 -74 -97 -137 -11 -71 -11 -291 0
-369 19 -132 127 -201 223 -142 36 22 75 85 78 126 3 33 19 41 83 44 28 1 57
4 67 7 21 6 24 0 32 -61 23 -193 129 -447 258 -620 21 -27 38 -54 37 -60 0 -5
-27 -31 -59 -57 l-59 -48 -37 25 c-88 59 -194 36 -230 -51 -30 -72 -8 -135 82
-233 121 -133 212 -211 269 -232 43 -17 43 -17 97 -6 39 8 97 63 99 95 5 70
-5 110 -43 163 -10 14 -3 27 38 78 27 33 52 61 56 61 4 0 17 -8 28 -18 70 -60
337 -202 407 -217 10 -2 52 -13 93 -24 41 -11 89 -22 105 -25 17 -2 49 -7 72
-11 l42 -7 -5 -41 c-3 -22 -7 -59 -8 -81 -3 -32 -8 -41 -22 -43 -92 -8 -151
-60 -160 -139 -5 -41 -2 -55 18 -84 13 -19 44 -46 68 -60 43 -24 52 -25 225
-25 231 0 278 8 321 56 47 52 57 110 28 167 -20 41 -57 66 -119 81 l-50 12 -3
52 c-2 29 -4 65 -5 82 -2 24 2 30 18 31 41 3 187 36 262 60 110 36 284 124
379 192 56 41 83 55 90 47 5 -6 28 -34 52 -63 l43 -52 -20 -26 c-42 -54 -49
-140 -15 -191 37 -57 127 -77 194 -43 79 41 282 247 324 328 39 75 12 167 -57
200 -57 27 -126 16 -188 -30 -14 -9 -22 -7 -46 13 -16 13 -44 35 -61 48 -18
13 -32 27 -32 30 0 4 21 35 46 70 51 71 122 200 152 276 10 28 22 59 27 70 10
24 11 28 25 80 20 72 34 139 44 208 l7 47 37 -5 c20 -3 55 -7 77 -9 22 -3 43
-5 46 -5 3 -1 6 -14 7 -30 1 -29 19 -70 44 -102 38 -48 135 -60 186 -22 15 11
38 40 52 64 23 41 24 54 26 214 3 227 -6 276 -60 330 -23 23 -51 42 -62 43
-86 8 -136 -19 -169 -91 -13 -27 -21 -55 -19 -62 7 -17 -11 -28 -50 -31 -17
-2 -52 -5 -78 -7 -39 -4 -46 -2 -46 11 1 10 -4 44 -11 77 -6 33 -13 71 -16 85
-24 124 -132 359 -225 488 -32 45 -56 82 -52 82 4 0 23 15 42 33 80 73 78 72
98 54 51 -46 145 -56 199 -21 59 37 77 118 45 188 -28 58 -176 218 -267 287
-16 13 -32 26 -35 29 -8 10 -84 36 -100 34 -8 -1 -25 -2 -37 -3 -46 -2 -108
-78 -106 -128 0 -7 1 -26 2 -42 0 -15 12 -45 26 -65 30 -45 30 -45 2 -77 -12
-15 -34 -41 -49 -59 l-27 -32 -98 66 c-130 86 -307 168 -413 191 -8 1 -35 8
-59 15 -24 6 -60 13 -80 16 -20 3 -45 6 -56 9 -11 2 -25 4 -32 4 -10 1 -10 60
2 126 2 11 4 25 4 31 1 6 14 11 31 12 45 1 105 40 127 81 43 80 19 153 -67
201 -44 24 -51 25 -241 26 -157 1 -203 -2 -236 -15z"/>
</g>
</svg>
